<svg width="112" height="112" viewBox="0 0 112 112" fill="none" xmlns="http://www.w3.org/2000/svg">
<g filter="url(#filter0_d)">
<path d="M81 19.0005L31 16.0005L34.3493 66.0005L79 65.0005L81 19.0005Z" fill="#242424" shape-rendering="crispEdges"/>
<path d="M81 19.0005L31 16.0005L34.3493 66.0005L79 65.0005L81 19.0005Z" stroke="white" stroke-opacity="0.5" shape-rendering="crispEdges"/>
</g>
<g clip-path="url(#clip0)">
<path d="M66.8239 39.6703C65.9482 36.6617 64.9607 35.1072 64.9448 35.0793C64.8885 35.0106 63.4931 33.3406 60.1298 32.1055L59.6853 33.3155C61.2854 33.9031 62.4205 34.62 63.0448 35.0832C61.181 34.5266 58.9638 34.1858 57 34.1858C55.0362 34.1858 52.819 34.5266 50.9552 35.0832C51.5794 34.62 52.7146 33.9031 54.3146 33.3155L53.8702 32.1055C50.507 33.3406 49.1115 35.0106 49.0552 35.0793C49.0393 35.1072 48.0518 36.6617 47.1761 39.6703C46.3322 42.5696 46.0116 46.6598 46 46.8238C46.0752 46.9414 47.8047 49.8942 52.5181 49.8942L53.7128 48.1642C52.3743 47.8088 51.098 47.2357 49.9297 46.458L50.6439 45.3849C52.5288 46.6395 54.7267 47.3027 57 47.3027C59.2733 47.3027 61.4712 46.6395 63.3561 45.3849L64.0703 46.458C62.9021 47.2357 61.6257 47.8088 60.2872 48.1642L61.4819 49.8942C66.1953 49.8942 67.9248 46.9414 68 46.8238C67.9884 46.6598 67.6678 42.5696 66.8239 39.6703ZM54.0198 43.0426H52.7307V40.8941H54.0198V43.0426ZM61.2693 43.0426H59.9802V40.8941H61.2693V43.0426Z" fill="white"/>
</g>
<defs>
<filter id="filter0_d" x="0.463379" y="0.467285" width="111.058" height="111.044" filterUnits="userSpaceOnUse" color-interpolation-filters="sRGB">
<feFlood flood-opacity="0" result="BackgroundImageFix"/>
<feColorMatrix in="SourceAlpha" type="matrix" values="0 0 0 0 0 0 0 0 0 0 0 0 0 0 0 0 0 0 127 0" result="hardAlpha"/>
<feOffset dy="15"/>
<feGaussianBlur stdDeviation="15"/>
<feComposite in2="hardAlpha" operator="out"/>
<feColorMatrix type="matrix" values="0 0 0 0 0 0 0 0 0 0 0 0 0 0 0 0 0 0 0.25 0"/>
<feBlend mode="normal" in2="BackgroundImageFix" result="effect1_dropShadow"/>
<feBlend mode="normal" in="SourceGraphic" in2="effect1_dropShadow" result="shape"/>
</filter>
<clipPath id="clip0">
<rect width="22" height="22" fill="white" transform="translate(46 30)"/>
</clipPath>
</defs>
</svg>
