<svg width="60" height="61" viewBox="0 0 60 61" fill="none" xmlns="http://www.w3.org/2000/svg">
                            <path d="M-3.49998e-06 56.9L60 60.5L55.9809 0.499996L2.4 1.69999L-3.49998e-06 56.9Z" fill="white"/>
                            <path d="M15.0074 26.08C13.9274 26.16 12.8008 26.24 11.6274 26.32L11.9674 23.8C12.0074 23.3867 12.2074 22.96 12.5674 22.52C12.9408 22.0667 13.3808 21.6133 13.8874 21.16C14.3941 20.6933 14.9341 20.2467 15.5074 19.82C16.0941 19.38 16.6341 18.96 17.1274 18.56C17.6208 18.16 18.0274 17.7933 18.3474 17.46C18.6808 17.1133 18.8474 16.8133 18.8474 16.56C18.8474 16.16 18.7674 15.8533 18.6074 15.64C18.4608 15.4133 18.2741 15.3 18.0474 15.3C17.8208 15.3 17.6208 15.3533 17.4474 15.46C17.2874 15.5533 17.1608 15.68 17.0674 15.84C16.9874 16 16.9274 16.1733 16.8874 16.36C16.8474 16.5467 16.8274 16.7333 16.8274 16.92V17.12C16.8274 17.16 16.8341 17.1867 16.8474 17.2C16.4874 17.2267 16.1141 17.26 15.7274 17.3C15.3941 17.3267 15.0208 17.3667 14.6074 17.42C14.2074 17.46 13.8074 17.5 13.4074 17.54C13.3941 17.4333 13.3808 17.3267 13.3674 17.22C13.3674 17.1 13.3674 16.9933 13.3674 16.9C13.3674 16.1133 13.5208 15.4133 13.8274 14.8C14.1341 14.1733 14.5274 13.6533 15.0074 13.24C15.5008 12.8133 16.0541 12.4867 16.6674 12.26C17.2941 12.0333 17.9141 11.92 18.5274 11.92C19.0341 11.92 19.5141 12 19.9674 12.16C20.4341 12.32 20.8408 12.5667 21.1874 12.9C21.5474 13.22 21.8341 13.6333 22.0474 14.14C22.2608 14.6333 22.3674 15.2267 22.3674 15.92C22.3674 16.5867 22.1941 17.24 21.8474 17.88C21.5008 18.5067 21.0208 19.1267 20.4074 19.74C19.7941 20.34 19.0674 20.9267 18.2274 21.5C17.3874 22.0733 16.4741 22.62 15.4874 23.14C15.8474 23.14 16.3074 23.1267 16.8674 23.1C17.4408 23.0733 18.0208 23.04 18.6074 23C19.2074 22.9467 19.8541 22.8933 20.5474 22.84L20.2274 25.74C19.9074 25.7667 19.5408 25.7933 19.1274 25.82C18.7274 25.8467 18.2941 25.8733 17.8274 25.9C17.3741 25.9267 16.9008 25.96 16.4074 26C15.9274 26.0267 15.4608 26.0533 15.0074 26.08ZM32.4434 16.66C32.4434 17.38 32.3834 18.12 32.2634 18.88C32.1434 19.64 31.9567 20.3867 31.7034 21.12C31.4634 21.84 31.1634 22.5267 30.8034 23.18C30.4567 23.8333 30.05 24.4067 29.5834 24.9C29.1167 25.38 28.5967 25.7667 28.0234 26.06C27.4634 26.34 26.85 26.48 26.1834 26.48C25.57 26.48 25.0434 26.3667 24.6034 26.14C24.1767 25.9133 23.8234 25.6067 23.5434 25.22C23.2767 24.82 23.0767 24.36 22.9434 23.84C22.81 23.3067 22.7434 22.7333 22.7434 22.12C22.7434 21.4133 22.8234 20.66 22.9834 19.86C23.1434 19.06 23.37 18.28 23.6634 17.52C23.97 16.76 24.3367 16.0333 24.7634 15.34C25.19 14.6467 25.65 14.04 26.1434 13.52C26.65 13 27.19 12.5867 27.7634 12.28C28.3367 11.96 28.93 11.8 29.5434 11.8C30.0367 11.8 30.4634 11.9267 30.8234 12.18C31.1967 12.4333 31.5034 12.78 31.7434 13.22C31.9834 13.66 32.1567 14.18 32.2634 14.78C32.3834 15.3667 32.4434 15.9933 32.4434 16.66ZM25.7434 21.46C25.7434 21.9533 25.8234 22.3533 25.9834 22.66C26.1434 22.9667 26.41 23.12 26.7834 23.12C27.2767 23.12 27.73 22.9533 28.1434 22.62C28.5567 22.2867 28.91 21.8733 29.2034 21.38C29.4967 20.8733 29.7234 20.3267 29.8834 19.74C30.0434 19.14 30.1234 18.5733 30.1234 18.04C30.1234 17.4667 30.01 16.98 29.7834 16.58C29.57 16.18 29.2234 15.98 28.7434 15.98C28.3567 15.98 27.9834 16.1667 27.6234 16.54C27.2634 16.9 26.9434 17.36 26.6634 17.92C26.3967 18.4667 26.1767 19.06 26.0034 19.7C25.83 20.34 25.7434 20.9267 25.7434 21.46ZM39.316 25.02C38.8227 25.7533 38.356 26.44 37.916 27.08L34.596 26.3C34.7427 26.1533 34.9893 25.84 35.336 25.36C35.6827 24.8667 36.0893 24.28 36.556 23.6C37.036 22.92 37.556 22.1667 38.116 21.34C38.676 20.5133 39.2427 19.6733 39.816 18.82C40.4027 17.9667 40.9693 17.1333 41.516 16.32C42.076 15.4933 42.576 14.74 43.016 14.06C43.4693 13.38 43.8427 12.8067 44.136 12.34C44.4427 11.86 44.6427 11.54 44.736 11.38C45.176 11.4867 45.616 11.58 46.056 11.66C46.4027 11.74 46.7627 11.8133 47.136 11.88C47.5094 11.9467 47.8027 11.9933 48.016 12.02C47.4427 12.86 46.7893 13.8267 46.056 14.92C45.3227 16.0133 44.5627 17.1467 43.776 18.32C44.1893 17.8933 44.6293 17.5467 45.096 17.28C45.576 17.0133 46.0827 16.88 46.616 16.88C46.9893 16.88 47.316 16.9667 47.596 17.14C47.876 17.3 48.1093 17.52 48.296 17.8C48.4827 18.08 48.616 18.4133 48.696 18.8C48.776 19.1867 48.816 19.5933 48.816 20.02C48.816 20.6867 48.716 21.38 48.516 22.1C48.316 22.82 48.0227 23.48 47.636 24.08C47.2493 24.6667 46.776 25.1533 46.216 25.54C45.6693 25.9133 45.0493 26.1 44.356 26.1C43.9027 26.1 43.5093 26.0267 43.176 25.88C42.856 25.7333 42.5893 25.5333 42.376 25.28C42.1627 25.0267 42.0093 24.7267 41.916 24.38C41.8227 24.0333 41.776 23.6667 41.776 23.28C41.776 22.7867 41.836 22.28 41.956 21.76C42.0893 21.2267 42.2827 20.7067 42.536 20.2C41.9093 21.12 41.316 21.9933 40.756 22.82C40.2093 23.6467 39.7293 24.38 39.316 25.02ZM36.456 17.04C36.456 17.3067 36.5093 17.5333 36.616 17.72C36.736 17.8933 36.9227 17.98 37.176 17.98C37.4827 17.98 37.756 17.9067 37.996 17.76C38.236 17.6 38.4427 17.4067 38.616 17.18C38.7893 16.94 38.9227 16.68 39.016 16.4C39.1093 16.12 39.156 15.8467 39.156 15.58C39.156 15.26 39.076 14.9867 38.916 14.76C38.7693 14.5333 38.536 14.42 38.216 14.42C37.976 14.42 37.7493 14.5133 37.536 14.7C37.3227 14.8733 37.136 15.0933 36.976 15.36C36.8293 15.6133 36.7027 15.8933 36.596 16.2C36.5027 16.5067 36.456 16.7867 36.456 17.04ZM41.096 14.34C41.096 14.9933 40.9893 15.6867 40.776 16.42C40.576 17.14 40.2893 17.8 39.916 18.4C39.5427 18.9867 39.076 19.4733 38.516 19.86C37.9693 20.2333 37.3427 20.42 36.636 20.42C36.1827 20.42 35.7893 20.3467 35.456 20.2C35.136 20.0533 34.8693 19.8533 34.656 19.6C34.456 19.3467 34.3027 19.0467 34.196 18.7C34.1027 18.3533 34.056 17.9867 34.056 17.6C34.056 16.92 34.1827 16.2067 34.436 15.46C34.6893 14.7 35.036 14.0067 35.476 13.38C35.9293 12.74 36.4427 12.2133 37.016 11.8C37.6027 11.3867 38.2293 11.18 38.896 11.18C39.2827 11.18 39.6093 11.2667 39.876 11.44C40.156 11.6133 40.3827 11.84 40.556 12.12C40.7427 12.4 40.876 12.7333 40.956 13.12C41.0493 13.4933 41.096 13.9 41.096 14.34ZM44.176 22.74C44.176 22.9933 44.2293 23.2133 44.336 23.4C44.4427 23.5733 44.6293 23.66 44.896 23.66C45.1893 23.66 45.456 23.5867 45.696 23.44C45.9493 23.28 46.1627 23.0867 46.336 22.86C46.5093 22.62 46.6427 22.36 46.736 22.08C46.8293 21.8 46.876 21.5267 46.876 21.26C46.876 20.94 46.796 20.6733 46.636 20.46C46.4893 20.2333 46.256 20.12 45.936 20.12C45.696 20.12 45.4693 20.2067 45.256 20.38C45.0427 20.5533 44.856 20.7733 44.696 21.04C44.5493 21.2933 44.4227 21.5733 44.316 21.88C44.2227 22.1867 44.176 22.4733 44.176 22.74ZM20.6998 43.56C20.6998 44.3067 20.5532 44.9867 20.2598 45.6C19.9798 46.2 19.5932 46.72 19.0998 47.16C18.6198 47.6 18.0465 47.94 17.3798 48.18C16.7265 48.42 16.0198 48.54 15.2598 48.54C14.7265 48.54 14.1932 48.4 13.6598 48.12C13.1265 47.8267 12.6132 47.3667 12.1198 46.74L13.5998 43.84C13.6932 44.0133 13.8332 44.1933 14.0198 44.38C14.2065 44.5533 14.4132 44.7067 14.6398 44.84C14.8798 44.9733 15.1132 45.0867 15.3398 45.18C15.5798 45.26 15.7932 45.3 15.9798 45.3C16.1398 45.3 16.3065 45.2733 16.4798 45.22C16.6532 45.1667 16.8132 45.0867 16.9598 44.98C17.1065 44.8733 17.2198 44.7533 17.2998 44.62C17.3932 44.4733 17.4398 44.3067 17.4398 44.12C17.4398 43.8 17.3332 43.5067 17.1198 43.24C16.9198 42.96 16.6665 42.7 16.3598 42.46C16.0532 42.2067 15.7198 41.9533 15.3598 41.7C14.9998 41.4467 14.6665 41.18 14.3598 40.9C14.0665 40.62 13.8132 40.3067 13.5998 39.96C13.3865 39.6133 13.2798 39.2267 13.2798 38.8C13.2798 38.1067 13.4865 37.46 13.8998 36.86C14.3132 36.26 14.8265 35.7467 15.4398 35.32C16.0665 34.88 16.7465 34.5333 17.4798 34.28C18.2132 34.0267 18.9065 33.9 19.5598 33.9C19.9198 33.9 20.2598 33.9467 20.5798 34.04C20.8998 34.12 21.1732 34.26 21.3998 34.46C21.6398 34.6467 21.8265 34.8867 21.9598 35.18C22.1065 35.4733 22.1798 35.84 22.1798 36.28C22.1798 36.4667 22.1598 36.6533 22.1198 36.84C22.0932 37.0267 22.0665 37.2267 22.0398 37.44L19.1398 38.28C19.1665 38.1733 19.1865 38.0667 19.1998 37.96C19.2265 37.8533 19.2398 37.7467 19.2398 37.64C19.2398 37.24 19.1665 36.9533 19.0198 36.78C18.8865 36.5933 18.7065 36.5 18.4798 36.5C18.3732 36.5 18.2398 36.54 18.0798 36.62C17.9332 36.7 17.7798 36.8067 17.6198 36.94C17.4732 37.06 17.3465 37.2067 17.2398 37.38C17.1332 37.5533 17.0798 37.74 17.0798 37.94C17.0798 38.26 17.1665 38.5267 17.3398 38.74C17.5265 38.9533 17.7532 39.1533 18.0198 39.34C18.2865 39.5267 18.5732 39.72 18.8798 39.92C19.1998 40.1067 19.4932 40.3533 19.7598 40.66C20.0265 40.9667 20.2465 41.3533 20.4198 41.82C20.6065 42.2733 20.6998 42.8533 20.6998 43.56ZM32.6336 37.68C32.6336 38.7733 32.5136 39.8067 32.2736 40.78C32.0469 41.74 31.7403 42.6267 31.3536 43.44C30.9669 44.24 30.5136 44.96 29.9936 45.6C29.4869 46.2267 28.9536 46.7667 28.3936 47.22C27.8336 47.66 27.2669 48 26.6936 48.24C26.1203 48.4667 25.5736 48.58 25.0536 48.58C24.6136 48.58 24.2136 48.5 23.8536 48.34C23.4936 48.1667 23.1803 47.92 22.9136 47.6C22.6469 47.2667 22.4336 46.8467 22.2736 46.34C22.1269 45.82 22.0536 45.2 22.0536 44.48C22.0536 43.7333 22.1469 42.9467 22.3336 42.12C22.5203 41.2933 22.7736 40.4733 23.0936 39.66C23.4136 38.8467 23.8069 38.0733 24.2736 37.34C24.7403 36.6067 25.2536 35.96 25.8136 35.4C26.3736 34.8267 26.9736 34.3733 27.6136 34.04C28.2536 33.7067 28.9203 33.54 29.6136 33.54C30.2136 33.54 30.7069 33.6667 31.0936 33.92C31.4936 34.16 31.8003 34.48 32.0136 34.88C32.2403 35.2667 32.4003 35.7067 32.4936 36.2C32.5869 36.6933 32.6336 37.1867 32.6336 37.68ZM25.0336 43.96C25.0336 44.1067 25.0603 44.26 25.1136 44.42C25.1669 44.58 25.2403 44.72 25.3336 44.84C25.4269 44.96 25.5403 45.0667 25.6736 45.16C25.8203 45.24 25.9736 45.28 26.1336 45.28C26.7336 45.28 27.2669 45.0733 27.7336 44.66C28.2003 44.2467 28.5869 43.74 28.8936 43.14C29.2003 42.54 29.4336 41.9 29.5936 41.22C29.7669 40.54 29.8536 39.92 29.8536 39.36C29.8536 39.2 29.8403 39.0267 29.8136 38.84C29.8003 38.6533 29.7603 38.48 29.6936 38.32C29.6403 38.16 29.5469 38.0267 29.4136 37.92C29.2936 37.8 29.1269 37.74 28.9136 37.74C28.4869 37.74 28.0936 37.8467 27.7336 38.06C27.3736 38.2733 27.0469 38.56 26.7536 38.92C26.4736 39.2667 26.2269 39.6667 26.0136 40.12C25.8003 40.56 25.6136 41.0133 25.4536 41.48C25.3069 41.9333 25.2003 42.38 25.1336 42.82C25.0669 43.26 25.0336 43.64 25.0336 43.96ZM37.8169 47.86C37.4035 47.86 36.9635 47.8733 36.4969 47.9C36.0435 47.9267 35.5835 47.9667 35.1169 48.02C34.6502 48.0733 34.1902 48.1467 33.7369 48.24C33.2969 48.32 32.8969 48.42 32.5369 48.54C32.6169 47.94 32.7102 47.2733 32.8169 46.54C32.9235 45.8067 33.0435 45.0467 33.1769 44.26C33.3235 43.4733 33.4635 42.68 33.5969 41.88C33.7435 41.08 33.8902 40.3133 34.0369 39.58C34.3702 37.8333 34.7235 36.0533 35.0969 34.24L38.5969 33.78C38.2369 35.3267 37.8902 36.8333 37.5569 38.3C37.4102 38.9267 37.2635 39.58 37.1169 40.26C36.9702 40.9267 36.8302 41.58 36.6969 42.22C36.5635 42.86 36.4435 43.48 36.3369 44.08C36.2302 44.68 36.1435 45.2133 36.0769 45.68C36.4102 45.6533 36.7635 45.64 37.1369 45.64C37.5235 45.6267 37.8635 45.62 38.1569 45.62C38.1702 45.8733 38.1902 46.1267 38.2169 46.38C38.2435 46.62 38.2702 46.84 38.2969 47.04C38.3369 47.24 38.3635 47.42 38.3769 47.58C38.4035 47.7267 38.4235 47.8267 38.4369 47.88C38.3302 47.88 38.2235 47.88 38.1169 47.88C38.0235 47.8667 37.9235 47.86 37.8169 47.86ZM49.512 38.28C49.512 38.9733 49.412 39.7133 49.212 40.5C49.012 41.2733 48.732 42.0467 48.372 42.82C48.012 43.58 47.5654 44.3133 47.032 45.02C46.512 45.7133 45.9187 46.3267 45.252 46.86C44.5854 47.38 43.852 47.8 43.052 48.12C42.2654 48.44 41.4254 48.6 40.532 48.6C40.3454 48.6 40.1587 48.5867 39.972 48.56C39.7854 48.5467 39.5987 48.5267 39.412 48.5C39.772 46.66 40.1254 44.8667 40.472 43.12C40.6054 42.3867 40.7454 41.6267 40.892 40.84C41.0387 40.04 41.1787 39.2533 41.312 38.48C41.4454 37.7067 41.572 36.9667 41.692 36.26C41.8254 35.5533 41.932 34.9133 42.012 34.34C42.5854 34.2333 43.1654 34.1333 43.752 34.04C44.3387 33.9467 44.9387 33.9 45.552 33.9C46.272 33.9 46.8787 34.0133 47.372 34.24C47.8787 34.4667 48.2854 34.78 48.592 35.18C48.912 35.58 49.1454 36.0467 49.292 36.58C49.4387 37.1133 49.512 37.68 49.512 38.28ZM44.792 36.72C44.6454 37.5067 44.492 38.26 44.332 38.98C44.172 39.7 44.012 40.4267 43.852 41.16C43.692 41.8933 43.532 42.66 43.372 43.46C43.212 44.26 43.0587 45.1333 42.912 46.08C43.232 45.8667 43.5387 45.58 43.832 45.22C44.1387 44.8467 44.4254 44.42 44.692 43.94C44.9587 43.46 45.1987 42.9533 45.412 42.42C45.6387 41.8867 45.832 41.3667 45.992 40.86C46.152 40.3533 46.272 39.88 46.352 39.44C46.4454 39 46.492 38.62 46.492 38.3C46.492 37.8067 46.352 37.42 46.072 37.14C45.8054 36.86 45.3787 36.72 44.792 36.72Z" fill="black"/>
                            </svg>