<svg width="60" height="61" viewBox="0 0 60 61" fill="none" xmlns="http://www.w3.org/2000/svg">
<path d="M-3.49998e-06 56.9L60 60.5L55.9809 0.499996L2.4 1.69999L-3.49998e-06 56.9Z" fill="white"/>
<path d="M10.9759 26.16C10.5493 26.2533 10.1093 26.34 9.65594 26.42C9.9226 25.22 10.1826 24.02 10.4359 22.82C10.5426 22.3133 10.6493 21.78 10.7559 21.22C10.8759 20.6467 10.9893 20.08 11.0959 19.52C11.2159 18.9467 11.3293 18.38 11.4359 17.82C11.5426 17.26 11.6359 16.7333 11.7159 16.24C11.3959 16.2667 11.0826 16.3067 10.7759 16.36C10.5226 16.4 10.2559 16.4467 9.97594 16.5C9.70927 16.54 9.4826 16.5733 9.29594 16.6C9.3226 16.4133 9.3626 16.1333 9.41594 15.76C9.46927 15.3733 9.52927 14.98 9.59594 14.58C9.64927 14.1267 9.71594 13.6333 9.79594 13.1C10.1026 13.0333 10.5293 12.9467 11.0759 12.84C11.5426 12.76 12.1626 12.66 12.9359 12.54C13.7093 12.42 14.6693 12.2667 15.8159 12.08C15.5359 13.2533 15.2759 14.3933 15.0359 15.5C14.8093 16.6067 14.5893 17.7133 14.3759 18.82C14.1759 19.9267 13.9759 21.0467 13.7759 22.18C13.5893 23.3 13.4026 24.4533 13.2159 25.64C12.9093 25.7333 12.5559 25.8267 12.1559 25.92C11.7559 26.0133 11.3626 26.0933 10.9759 26.16ZM25.7422 16.66C25.7422 17.38 25.6822 18.12 25.5622 18.88C25.4422 19.64 25.2555 20.3867 25.0022 21.12C24.7622 21.84 24.4622 22.5267 24.1022 23.18C23.7555 23.8333 23.3489 24.4067 22.8822 24.9C22.4155 25.38 21.8955 25.7667 21.3222 26.06C20.7622 26.34 20.1489 26.48 19.4822 26.48C18.8689 26.48 18.3422 26.3667 17.9022 26.14C17.4755 25.9133 17.1222 25.6067 16.8422 25.22C16.5755 24.82 16.3755 24.36 16.2422 23.84C16.1089 23.3067 16.0422 22.7333 16.0422 22.12C16.0422 21.4133 16.1222 20.66 16.2822 19.86C16.4422 19.06 16.6689 18.28 16.9622 17.52C17.2689 16.76 17.6355 16.0333 18.0622 15.34C18.4889 14.6467 18.9489 14.04 19.4422 13.52C19.9489 13 20.4889 12.5867 21.0622 12.28C21.6355 11.96 22.2289 11.8 22.8422 11.8C23.3355 11.8 23.7622 11.9267 24.1222 12.18C24.4955 12.4333 24.8022 12.78 25.0422 13.22C25.2822 13.66 25.4555 14.18 25.5622 14.78C25.6822 15.3667 25.7422 15.9933 25.7422 16.66ZM19.0422 21.46C19.0422 21.9533 19.1222 22.3533 19.2822 22.66C19.4422 22.9667 19.7089 23.12 20.0822 23.12C20.5755 23.12 21.0289 22.9533 21.4422 22.62C21.8555 22.2867 22.2089 21.8733 22.5022 21.38C22.7955 20.8733 23.0222 20.3267 23.1822 19.74C23.3422 19.14 23.4222 18.5733 23.4222 18.04C23.4222 17.4667 23.3089 16.98 23.0822 16.58C22.8689 16.18 22.5222 15.98 22.0422 15.98C21.6555 15.98 21.2822 16.1667 20.9222 16.54C20.5622 16.9 20.2422 17.36 19.9622 17.92C19.6955 18.4667 19.4755 19.06 19.3022 19.7C19.1289 20.34 19.0422 20.9267 19.0422 21.46ZM36.2148 16.66C36.2148 17.38 36.1548 18.12 36.0348 18.88C35.9148 19.64 35.7282 20.3867 35.4748 21.12C35.2348 21.84 34.9348 22.5267 34.5748 23.18C34.2282 23.8333 33.8215 24.4067 33.3548 24.9C32.8882 25.38 32.3682 25.7667 31.7948 26.06C31.2348 26.34 30.6215 26.48 29.9548 26.48C29.3415 26.48 28.8148 26.3667 28.3748 26.14C27.9482 25.9133 27.5948 25.6067 27.3148 25.22C27.0482 24.82 26.8482 24.36 26.7148 23.84C26.5815 23.3067 26.5148 22.7333 26.5148 22.12C26.5148 21.4133 26.5948 20.66 26.7548 19.86C26.9148 19.06 27.1415 18.28 27.4348 17.52C27.7415 16.76 28.1082 16.0333 28.5348 15.34C28.9615 14.6467 29.4215 14.04 29.9148 13.52C30.4215 13 30.9615 12.5867 31.5348 12.28C32.1082 11.96 32.7015 11.8 33.3148 11.8C33.8082 11.8 34.2348 11.9267 34.5948 12.18C34.9682 12.4333 35.2748 12.78 35.5148 13.22C35.7548 13.66 35.9282 14.18 36.0348 14.78C36.1548 15.3667 36.2148 15.9933 36.2148 16.66ZM29.5148 21.46C29.5148 21.9533 29.5948 22.3533 29.7548 22.66C29.9148 22.9667 30.1815 23.12 30.5548 23.12C31.0482 23.12 31.5015 22.9533 31.9148 22.62C32.3282 22.2867 32.6815 21.8733 32.9748 21.38C33.2682 20.8733 33.4948 20.3267 33.6548 19.74C33.8148 19.14 33.8948 18.5733 33.8948 18.04C33.8948 17.4667 33.7815 16.98 33.5548 16.58C33.3415 16.18 32.9948 15.98 32.5148 15.98C32.1282 15.98 31.7548 16.1667 31.3948 16.54C31.0348 16.9 30.7148 17.36 30.4348 17.92C30.1682 18.4667 29.9482 19.06 29.7748 19.7C29.6015 20.34 29.5148 20.9267 29.5148 21.46ZM43.0875 25.02C42.5942 25.7533 42.1275 26.44 41.6875 27.08L38.3675 26.3C38.5142 26.1533 38.7608 25.84 39.1075 25.36C39.4542 24.8667 39.8608 24.28 40.3275 23.6C40.8075 22.92 41.3275 22.1667 41.8875 21.34C42.4475 20.5133 43.0142 19.6733 43.5875 18.82C44.1742 17.9667 44.7408 17.1333 45.2875 16.32C45.8475 15.4933 46.3475 14.74 46.7875 14.06C47.2408 13.38 47.6142 12.8067 47.9075 12.34C48.2142 11.86 48.4142 11.54 48.5075 11.38C48.9475 11.4867 49.3875 11.58 49.8275 11.66C50.1742 11.74 50.5342 11.8133 50.9075 11.88C51.2808 11.9467 51.5742 11.9933 51.7875 12.02C51.2142 12.86 50.5608 13.8267 49.8275 14.92C49.0942 16.0133 48.3342 17.1467 47.5475 18.32C47.9608 17.8933 48.4008 17.5467 48.8675 17.28C49.3475 17.0133 49.8542 16.88 50.3875 16.88C50.7608 16.88 51.0875 16.9667 51.3675 17.14C51.6475 17.3 51.8808 17.52 52.0675 17.8C52.2542 18.08 52.3875 18.4133 52.4675 18.8C52.5475 19.1867 52.5875 19.5933 52.5875 20.02C52.5875 20.6867 52.4875 21.38 52.2875 22.1C52.0875 22.82 51.7942 23.48 51.4075 24.08C51.0208 24.6667 50.5475 25.1533 49.9875 25.54C49.4408 25.9133 48.8208 26.1 48.1275 26.1C47.6742 26.1 47.2808 26.0267 46.9475 25.88C46.6275 25.7333 46.3608 25.5333 46.1475 25.28C45.9342 25.0267 45.7808 24.7267 45.6875 24.38C45.5942 24.0333 45.5475 23.6667 45.5475 23.28C45.5475 22.7867 45.6075 22.28 45.7275 21.76C45.8608 21.2267 46.0542 20.7067 46.3075 20.2C45.6808 21.12 45.0875 21.9933 44.5275 22.82C43.9808 23.6467 43.5008 24.38 43.0875 25.02ZM40.2275 17.04C40.2275 17.3067 40.2808 17.5333 40.3875 17.72C40.5075 17.8933 40.6942 17.98 40.9475 17.98C41.2542 17.98 41.5275 17.9067 41.7675 17.76C42.0075 17.6 42.2142 17.4067 42.3875 17.18C42.5608 16.94 42.6942 16.68 42.7875 16.4C42.8808 16.12 42.9275 15.8467 42.9275 15.58C42.9275 15.26 42.8475 14.9867 42.6875 14.76C42.5408 14.5333 42.3075 14.42 41.9875 14.42C41.7475 14.42 41.5208 14.5133 41.3075 14.7C41.0942 14.8733 40.9075 15.0933 40.7475 15.36C40.6008 15.6133 40.4742 15.8933 40.3675 16.2C40.2742 16.5067 40.2275 16.7867 40.2275 17.04ZM44.8675 14.34C44.8675 14.9933 44.7608 15.6867 44.5475 16.42C44.3475 17.14 44.0608 17.8 43.6875 18.4C43.3142 18.9867 42.8475 19.4733 42.2875 19.86C41.7408 20.2333 41.1142 20.42 40.4075 20.42C39.9542 20.42 39.5608 20.3467 39.2275 20.2C38.9075 20.0533 38.6408 19.8533 38.4275 19.6C38.2275 19.3467 38.0742 19.0467 37.9675 18.7C37.8742 18.3533 37.8275 17.9867 37.8275 17.6C37.8275 16.92 37.9542 16.2067 38.2075 15.46C38.4608 14.7 38.8075 14.0067 39.2475 13.38C39.7008 12.74 40.2142 12.2133 40.7875 11.8C41.3742 11.3867 42.0008 11.18 42.6675 11.18C43.0542 11.18 43.3808 11.2667 43.6475 11.44C43.9275 11.6133 44.1542 11.84 44.3275 12.12C44.5142 12.4 44.6475 12.7333 44.7275 13.12C44.8208 13.4933 44.8675 13.9 44.8675 14.34ZM47.9475 22.74C47.9475 22.9933 48.0008 23.2133 48.1075 23.4C48.2142 23.5733 48.4008 23.66 48.6675 23.66C48.9608 23.66 49.2275 23.5867 49.4675 23.44C49.7208 23.28 49.9342 23.0867 50.1075 22.86C50.2808 22.62 50.4142 22.36 50.5075 22.08C50.6008 21.8 50.6475 21.5267 50.6475 21.26C50.6475 20.94 50.5675 20.6733 50.4075 20.46C50.2608 20.2333 50.0275 20.12 49.7075 20.12C49.4675 20.12 49.2408 20.2067 49.0275 20.38C48.8142 20.5533 48.6275 20.7733 48.4675 21.04C48.3208 21.2933 48.1942 21.5733 48.0875 21.88C47.9942 22.1867 47.9475 22.4733 47.9475 22.74ZM20.6998 43.56C20.6998 44.3067 20.5532 44.9867 20.2598 45.6C19.9798 46.2 19.5932 46.72 19.0998 47.16C18.6198 47.6 18.0465 47.94 17.3798 48.18C16.7265 48.42 16.0198 48.54 15.2598 48.54C14.7265 48.54 14.1932 48.4 13.6598 48.12C13.1265 47.8267 12.6132 47.3667 12.1198 46.74L13.5998 43.84C13.6932 44.0133 13.8332 44.1933 14.0198 44.38C14.2065 44.5533 14.4132 44.7067 14.6398 44.84C14.8798 44.9733 15.1132 45.0867 15.3398 45.18C15.5798 45.26 15.7932 45.3 15.9798 45.3C16.1398 45.3 16.3065 45.2733 16.4798 45.22C16.6532 45.1667 16.8132 45.0867 16.9598 44.98C17.1065 44.8733 17.2198 44.7533 17.2998 44.62C17.3932 44.4733 17.4398 44.3067 17.4398 44.12C17.4398 43.8 17.3332 43.5067 17.1198 43.24C16.9198 42.96 16.6665 42.7 16.3598 42.46C16.0532 42.2067 15.7198 41.9533 15.3598 41.7C14.9998 41.4467 14.6665 41.18 14.3598 40.9C14.0665 40.62 13.8132 40.3067 13.5998 39.96C13.3865 39.6133 13.2798 39.2267 13.2798 38.8C13.2798 38.1067 13.4865 37.46 13.8998 36.86C14.3132 36.26 14.8265 35.7467 15.4398 35.32C16.0665 34.88 16.7465 34.5333 17.4798 34.28C18.2132 34.0267 18.9065 33.9 19.5598 33.9C19.9198 33.9 20.2598 33.9467 20.5798 34.04C20.8998 34.12 21.1732 34.26 21.3998 34.46C21.6398 34.6467 21.8265 34.8867 21.9598 35.18C22.1065 35.4733 22.1798 35.84 22.1798 36.28C22.1798 36.4667 22.1598 36.6533 22.1198 36.84C22.0932 37.0267 22.0665 37.2267 22.0398 37.44L19.1398 38.28C19.1665 38.1733 19.1865 38.0667 19.1998 37.96C19.2265 37.8533 19.2398 37.7467 19.2398 37.64C19.2398 37.24 19.1665 36.9533 19.0198 36.78C18.8865 36.5933 18.7065 36.5 18.4798 36.5C18.3732 36.5 18.2398 36.54 18.0798 36.62C17.9332 36.7 17.7798 36.8067 17.6198 36.94C17.4732 37.06 17.3465 37.2067 17.2398 37.38C17.1332 37.5533 17.0798 37.74 17.0798 37.94C17.0798 38.26 17.1665 38.5267 17.3398 38.74C17.5265 38.9533 17.7532 39.1533 18.0198 39.34C18.2865 39.5267 18.5732 39.72 18.8798 39.92C19.1998 40.1067 19.4932 40.3533 19.7598 40.66C20.0265 40.9667 20.2465 41.3533 20.4198 41.82C20.6065 42.2733 20.6998 42.8533 20.6998 43.56ZM32.6336 37.68C32.6336 38.7733 32.5136 39.8067 32.2736 40.78C32.0469 41.74 31.7403 42.6267 31.3536 43.44C30.9669 44.24 30.5136 44.96 29.9936 45.6C29.4869 46.2267 28.9536 46.7667 28.3936 47.22C27.8336 47.66 27.2669 48 26.6936 48.24C26.1203 48.4667 25.5736 48.58 25.0536 48.58C24.6136 48.58 24.2136 48.5 23.8536 48.34C23.4936 48.1667 23.1803 47.92 22.9136 47.6C22.6469 47.2667 22.4336 46.8467 22.2736 46.34C22.1269 45.82 22.0536 45.2 22.0536 44.48C22.0536 43.7333 22.1469 42.9467 22.3336 42.12C22.5203 41.2933 22.7736 40.4733 23.0936 39.66C23.4136 38.8467 23.8069 38.0733 24.2736 37.34C24.7403 36.6067 25.2536 35.96 25.8136 35.4C26.3736 34.8267 26.9736 34.3733 27.6136 34.04C28.2536 33.7067 28.9203 33.54 29.6136 33.54C30.2136 33.54 30.7069 33.6667 31.0936 33.92C31.4936 34.16 31.8003 34.48 32.0136 34.88C32.2403 35.2667 32.4003 35.7067 32.4936 36.2C32.5869 36.6933 32.6336 37.1867 32.6336 37.68ZM25.0336 43.96C25.0336 44.1067 25.0603 44.26 25.1136 44.42C25.1669 44.58 25.2403 44.72 25.3336 44.84C25.4269 44.96 25.5403 45.0667 25.6736 45.16C25.8203 45.24 25.9736 45.28 26.1336 45.28C26.7336 45.28 27.2669 45.0733 27.7336 44.66C28.2003 44.2467 28.5869 43.74 28.8936 43.14C29.2003 42.54 29.4336 41.9 29.5936 41.22C29.7669 40.54 29.8536 39.92 29.8536 39.36C29.8536 39.2 29.8403 39.0267 29.8136 38.84C29.8003 38.6533 29.7603 38.48 29.6936 38.32C29.6403 38.16 29.5469 38.0267 29.4136 37.92C29.2936 37.8 29.1269 37.74 28.9136 37.74C28.4869 37.74 28.0936 37.8467 27.7336 38.06C27.3736 38.2733 27.0469 38.56 26.7536 38.92C26.4736 39.2667 26.2269 39.6667 26.0136 40.12C25.8003 40.56 25.6136 41.0133 25.4536 41.48C25.3069 41.9333 25.2003 42.38 25.1336 42.82C25.0669 43.26 25.0336 43.64 25.0336 43.96ZM37.8169 47.86C37.4035 47.86 36.9635 47.8733 36.4969 47.9C36.0435 47.9267 35.5835 47.9667 35.1169 48.02C34.6502 48.0733 34.1902 48.1467 33.7369 48.24C33.2969 48.32 32.8969 48.42 32.5369 48.54C32.6169 47.94 32.7102 47.2733 32.8169 46.54C32.9235 45.8067 33.0435 45.0467 33.1769 44.26C33.3235 43.4733 33.4635 42.68 33.5969 41.88C33.7435 41.08 33.8902 40.3133 34.0369 39.58C34.3702 37.8333 34.7235 36.0533 35.0969 34.24L38.5969 33.78C38.2369 35.3267 37.8902 36.8333 37.5569 38.3C37.4102 38.9267 37.2635 39.58 37.1169 40.26C36.9702 40.9267 36.8302 41.58 36.6969 42.22C36.5635 42.86 36.4435 43.48 36.3369 44.08C36.2302 44.68 36.1435 45.2133 36.0769 45.68C36.4102 45.6533 36.7635 45.64 37.1369 45.64C37.5235 45.6267 37.8635 45.62 38.1569 45.62C38.1702 45.8733 38.1902 46.1267 38.2169 46.38C38.2435 46.62 38.2702 46.84 38.2969 47.04C38.3369 47.24 38.3635 47.42 38.3769 47.58C38.4035 47.7267 38.4235 47.8267 38.4369 47.88C38.3302 47.88 38.2235 47.88 38.1169 47.88C38.0235 47.8667 37.9235 47.86 37.8169 47.86ZM49.512 38.28C49.512 38.9733 49.412 39.7133 49.212 40.5C49.012 41.2733 48.732 42.0467 48.372 42.82C48.012 43.58 47.5654 44.3133 47.032 45.02C46.512 45.7133 45.9187 46.3267 45.252 46.86C44.5854 47.38 43.852 47.8 43.052 48.12C42.2654 48.44 41.4254 48.6 40.532 48.6C40.3454 48.6 40.1587 48.5867 39.972 48.56C39.7854 48.5467 39.5987 48.5267 39.412 48.5C39.772 46.66 40.1254 44.8667 40.472 43.12C40.6054 42.3867 40.7454 41.6267 40.892 40.84C41.0387 40.04 41.1787 39.2533 41.312 38.48C41.4454 37.7067 41.572 36.9667 41.692 36.26C41.8254 35.5533 41.932 34.9133 42.012 34.34C42.5854 34.2333 43.1654 34.1333 43.752 34.04C44.3387 33.9467 44.9387 33.9 45.552 33.9C46.272 33.9 46.8787 34.0133 47.372 34.24C47.8787 34.4667 48.2854 34.78 48.592 35.18C48.912 35.58 49.1454 36.0467 49.292 36.58C49.4387 37.1133 49.512 37.68 49.512 38.28ZM44.792 36.72C44.6454 37.5067 44.492 38.26 44.332 38.98C44.172 39.7 44.012 40.4267 43.852 41.16C43.692 41.8933 43.532 42.66 43.372 43.46C43.212 44.26 43.0587 45.1333 42.912 46.08C43.232 45.8667 43.5387 45.58 43.832 45.22C44.1387 44.8467 44.4254 44.42 44.692 43.94C44.9587 43.46 45.1987 42.9533 45.412 42.42C45.6387 41.8867 45.832 41.3667 45.992 40.86C46.152 40.3533 46.272 39.88 46.352 39.44C46.4454 39 46.492 38.62 46.492 38.3C46.492 37.8067 46.352 37.42 46.072 37.14C45.8054 36.86 45.3787 36.72 44.792 36.72Z" fill="black"/>
</svg>
