<svg width="100" height="70" viewBox="0 0 100 100" fill="none" xmlns="http://www.w3.org/2000/svg">
<g filter="url(#filter0_d)">
<path d="M70 17.4L30 15L32.6794 55L68.4 54.2L70 17.4Z" fill="#D7100B"/>
</g>
<path d="M57.7071 35.7071C58.0976 35.3166 58.0976 34.6834 57.7071 34.2929L51.3431 27.9289C50.9526 27.5384 50.3195 27.5384 49.9289 27.9289C49.5384 28.3195 49.5384 28.9526 49.9289 29.3431L55.5858 35L49.9289 40.6569C49.5384 41.0474 49.5384 41.6805 49.9289 42.0711C50.3195 42.4616 50.9526 42.4616 51.3431 42.0711L57.7071 35.7071ZM42 36L57 36L57 34L42 34L42 36Z" fill="white"/>
<defs>
<filter id="filter0_d" x="0" y="0" width="100" height="100" filterUnits="userSpaceOnUse" color-interpolation-filters="sRGB">
<feFlood flood-opacity="0" result="BackgroundImageFix"/>
<feColorMatrix in="SourceAlpha" type="matrix" values="0 0 0 0 0 0 0 0 0 0 0 0 0 0 0 0 0 0 127 0" result="hardAlpha"/>
<feOffset dy="15"/>
<feGaussianBlur stdDeviation="15"/>
<feComposite in2="hardAlpha" operator="out"/>
<feColorMatrix type="matrix" values="0 0 0 0 0 0 0 0 0 0 0 0 0 0 0 0 0 0 0.25 0"/>
<feBlend mode="normal" in2="BackgroundImageFix" result="effect1_dropShadow"/>
<feBlend mode="normal" in="SourceGraphic" in2="effect1_dropShadow" result="shape"/>
</filter>
</defs>
</svg>
