<svg width="60" height="61" viewBox="0 0 60 61" fill="none" xmlns="http://www.w3.org/2000/svg">
<path d="M-3.49998e-06 56.9L60 60.5L55.9809 0.499996L2.4 1.69999L-3.49998e-06 56.9Z" fill="white"/>
<path d="M13.6235 26.32L17.6035 15.38L14.6435 15.82L15.2635 12.3L22.2835 11.7L17.2035 26L13.6235 26.32ZM31.0083 16.66C31.0083 17.38 30.9483 18.12 30.8283 18.88C30.7083 19.64 30.5216 20.3867 30.2683 21.12C30.0283 21.84 29.7283 22.5267 29.3683 23.18C29.0216 23.8333 28.615 24.4067 28.1483 24.9C27.6816 25.38 27.1616 25.7667 26.5883 26.06C26.0283 26.34 25.415 26.48 24.7483 26.48C24.135 26.48 23.6083 26.3667 23.1683 26.14C22.7416 25.9133 22.3883 25.6067 22.1083 25.22C21.8416 24.82 21.6416 24.36 21.5083 23.84C21.375 23.3067 21.3083 22.7333 21.3083 22.12C21.3083 21.4133 21.3883 20.66 21.5483 19.86C21.7083 19.06 21.935 18.28 22.2283 17.52C22.535 16.76 22.9016 16.0333 23.3283 15.34C23.755 14.6467 24.215 14.04 24.7083 13.52C25.215 13 25.755 12.5867 26.3283 12.28C26.9016 11.96 27.495 11.8 28.1083 11.8C28.6016 11.8 29.0283 11.9267 29.3883 12.18C29.7616 12.4333 30.0683 12.78 30.3083 13.22C30.5483 13.66 30.7216 14.18 30.8283 14.78C30.9483 15.3667 31.0083 15.9933 31.0083 16.66ZM24.3083 21.46C24.3083 21.9533 24.3883 22.3533 24.5483 22.66C24.7083 22.9667 24.975 23.12 25.3483 23.12C25.8416 23.12 26.295 22.9533 26.7083 22.62C27.1216 22.2867 27.475 21.8733 27.7683 21.38C28.0616 20.8733 28.2883 20.3267 28.4483 19.74C28.6083 19.14 28.6883 18.5733 28.6883 18.04C28.6883 17.4667 28.575 16.98 28.3483 16.58C28.135 16.18 27.7883 15.98 27.3083 15.98C26.9216 15.98 26.5483 16.1667 26.1883 16.54C25.8283 16.9 25.5083 17.36 25.2283 17.92C24.9616 18.4667 24.7416 19.06 24.5683 19.7C24.395 20.34 24.3083 20.9267 24.3083 21.46ZM37.881 25.02C37.3876 25.7533 36.921 26.44 36.481 27.08L33.161 26.3C33.3076 26.1533 33.5543 25.84 33.901 25.36C34.2476 24.8667 34.6543 24.28 35.121 23.6C35.601 22.92 36.121 22.1667 36.681 21.34C37.241 20.5133 37.8076 19.6733 38.381 18.82C38.9676 17.9667 39.5343 17.1333 40.081 16.32C40.641 15.4933 41.141 14.74 41.581 14.06C42.0343 13.38 42.4076 12.8067 42.701 12.34C43.0076 11.86 43.2076 11.54 43.301 11.38C43.741 11.4867 44.181 11.58 44.621 11.66C44.9676 11.74 45.3276 11.8133 45.701 11.88C46.0743 11.9467 46.3676 11.9933 46.581 12.02C46.0076 12.86 45.3543 13.8267 44.621 14.92C43.8876 16.0133 43.1276 17.1467 42.341 18.32C42.7543 17.8933 43.1943 17.5467 43.661 17.28C44.141 17.0133 44.6476 16.88 45.181 16.88C45.5543 16.88 45.881 16.9667 46.161 17.14C46.441 17.3 46.6743 17.52 46.861 17.8C47.0476 18.08 47.181 18.4133 47.261 18.8C47.341 19.1867 47.381 19.5933 47.381 20.02C47.381 20.6867 47.281 21.38 47.081 22.1C46.881 22.82 46.5876 23.48 46.201 24.08C45.8143 24.6667 45.341 25.1533 44.781 25.54C44.2343 25.9133 43.6143 26.1 42.921 26.1C42.4676 26.1 42.0743 26.0267 41.741 25.88C41.421 25.7333 41.1543 25.5333 40.941 25.28C40.7276 25.0267 40.5743 24.7267 40.481 24.38C40.3876 24.0333 40.341 23.6667 40.341 23.28C40.341 22.7867 40.401 22.28 40.521 21.76C40.6543 21.2267 40.8476 20.7067 41.101 20.2C40.4743 21.12 39.881 21.9933 39.321 22.82C38.7743 23.6467 38.2943 24.38 37.881 25.02ZM35.021 17.04C35.021 17.3067 35.0743 17.5333 35.181 17.72C35.301 17.8933 35.4876 17.98 35.741 17.98C36.0476 17.98 36.321 17.9067 36.561 17.76C36.801 17.6 37.0076 17.4067 37.181 17.18C37.3543 16.94 37.4876 16.68 37.581 16.4C37.6743 16.12 37.721 15.8467 37.721 15.58C37.721 15.26 37.641 14.9867 37.481 14.76C37.3343 14.5333 37.101 14.42 36.781 14.42C36.541 14.42 36.3143 14.5133 36.101 14.7C35.8876 14.8733 35.701 15.0933 35.541 15.36C35.3943 15.6133 35.2676 15.8933 35.161 16.2C35.0676 16.5067 35.021 16.7867 35.021 17.04ZM39.661 14.34C39.661 14.9933 39.5543 15.6867 39.341 16.42C39.141 17.14 38.8543 17.8 38.481 18.4C38.1076 18.9867 37.641 19.4733 37.081 19.86C36.5343 20.2333 35.9076 20.42 35.201 20.42C34.7476 20.42 34.3543 20.3467 34.021 20.2C33.701 20.0533 33.4343 19.8533 33.221 19.6C33.021 19.3467 32.8676 19.0467 32.761 18.7C32.6676 18.3533 32.621 17.9867 32.621 17.6C32.621 16.92 32.7476 16.2067 33.001 15.46C33.2543 14.7 33.601 14.0067 34.041 13.38C34.4943 12.74 35.0076 12.2133 35.581 11.8C36.1676 11.3867 36.7943 11.18 37.461 11.18C37.8476 11.18 38.1743 11.2667 38.441 11.44C38.721 11.6133 38.9476 11.84 39.121 12.12C39.3076 12.4 39.441 12.7333 39.521 13.12C39.6143 13.4933 39.661 13.9 39.661 14.34ZM42.741 22.74C42.741 22.9933 42.7943 23.2133 42.901 23.4C43.0076 23.5733 43.1943 23.66 43.461 23.66C43.7543 23.66 44.021 23.5867 44.261 23.44C44.5143 23.28 44.7276 23.0867 44.901 22.86C45.0743 22.62 45.2076 22.36 45.301 22.08C45.3943 21.8 45.441 21.5267 45.441 21.26C45.441 20.94 45.361 20.6733 45.201 20.46C45.0543 20.2333 44.821 20.12 44.501 20.12C44.261 20.12 44.0343 20.2067 43.821 20.38C43.6076 20.5533 43.421 20.7733 43.261 21.04C43.1143 21.2933 42.9876 21.5733 42.881 21.88C42.7876 22.1867 42.741 22.4733 42.741 22.74ZM20.7003 43.56C20.7003 44.3067 20.5537 44.9867 20.2603 45.6C19.9803 46.2 19.5937 46.72 19.1003 47.16C18.6203 47.6 18.047 47.94 17.3803 48.18C16.727 48.42 16.0203 48.54 15.2603 48.54C14.727 48.54 14.1937 48.4 13.6603 48.12C13.127 47.8267 12.6137 47.3667 12.1203 46.74L13.6003 43.84C13.6937 44.0133 13.8337 44.1933 14.0203 44.38C14.207 44.5533 14.4137 44.7067 14.6403 44.84C14.8803 44.9733 15.1137 45.0867 15.3403 45.18C15.5803 45.26 15.7937 45.3 15.9803 45.3C16.1403 45.3 16.307 45.2733 16.4803 45.22C16.6537 45.1667 16.8137 45.0867 16.9603 44.98C17.107 44.8733 17.2203 44.7533 17.3003 44.62C17.3937 44.4733 17.4403 44.3067 17.4403 44.12C17.4403 43.8 17.3337 43.5067 17.1203 43.24C16.9203 42.96 16.667 42.7 16.3603 42.46C16.0537 42.2067 15.7203 41.9533 15.3603 41.7C15.0003 41.4467 14.667 41.18 14.3603 40.9C14.067 40.62 13.8137 40.3067 13.6003 39.96C13.387 39.6133 13.2803 39.2267 13.2803 38.8C13.2803 38.1067 13.487 37.46 13.9003 36.86C14.3137 36.26 14.827 35.7467 15.4403 35.32C16.067 34.88 16.747 34.5333 17.4803 34.28C18.2137 34.0267 18.907 33.9 19.5603 33.9C19.9203 33.9 20.2603 33.9467 20.5803 34.04C20.9003 34.12 21.1737 34.26 21.4003 34.46C21.6403 34.6467 21.827 34.8867 21.9603 35.18C22.107 35.4733 22.1803 35.84 22.1803 36.28C22.1803 36.4667 22.1603 36.6533 22.1203 36.84C22.0937 37.0267 22.067 37.2267 22.0403 37.44L19.1403 38.28C19.167 38.1733 19.187 38.0667 19.2003 37.96C19.227 37.8533 19.2403 37.7467 19.2403 37.64C19.2403 37.24 19.167 36.9533 19.0203 36.78C18.887 36.5933 18.707 36.5 18.4803 36.5C18.3737 36.5 18.2403 36.54 18.0803 36.62C17.9337 36.7 17.7803 36.8067 17.6203 36.94C17.4737 37.06 17.347 37.2067 17.2403 37.38C17.1337 37.5533 17.0803 37.74 17.0803 37.94C17.0803 38.26 17.167 38.5267 17.3403 38.74C17.527 38.9533 17.7537 39.1533 18.0203 39.34C18.287 39.5267 18.5737 39.72 18.8803 39.92C19.2003 40.1067 19.4937 40.3533 19.7603 40.66C20.027 40.9667 20.247 41.3533 20.4203 41.82C20.607 42.2733 20.7003 42.8533 20.7003 43.56ZM32.6341 37.68C32.6341 38.7733 32.5141 39.8067 32.2741 40.78C32.0474 41.74 31.7407 42.6267 31.3541 43.44C30.9674 44.24 30.5141 44.96 29.9941 45.6C29.4874 46.2267 28.9541 46.7667 28.3941 47.22C27.8341 47.66 27.2674 48 26.6941 48.24C26.1207 48.4667 25.5741 48.58 25.0541 48.58C24.6141 48.58 24.2141 48.5 23.8541 48.34C23.4941 48.1667 23.1807 47.92 22.9141 47.6C22.6474 47.2667 22.4341 46.8467 22.2741 46.34C22.1274 45.82 22.0541 45.2 22.0541 44.48C22.0541 43.7333 22.1474 42.9467 22.3341 42.12C22.5207 41.2933 22.7741 40.4733 23.0941 39.66C23.4141 38.8467 23.8074 38.0733 24.2741 37.34C24.7407 36.6067 25.2541 35.96 25.8141 35.4C26.3741 34.8267 26.9741 34.3733 27.6141 34.04C28.2541 33.7067 28.9207 33.54 29.6141 33.54C30.2141 33.54 30.7074 33.6667 31.0941 33.92C31.4941 34.16 31.8007 34.48 32.0141 34.88C32.2407 35.2667 32.4007 35.7067 32.4941 36.2C32.5874 36.6933 32.6341 37.1867 32.6341 37.68ZM25.0341 43.96C25.0341 44.1067 25.0607 44.26 25.1141 44.42C25.1674 44.58 25.2407 44.72 25.3341 44.84C25.4274 44.96 25.5407 45.0667 25.6741 45.16C25.8207 45.24 25.9741 45.28 26.1341 45.28C26.7341 45.28 27.2674 45.0733 27.7341 44.66C28.2007 44.2467 28.5874 43.74 28.8941 43.14C29.2007 42.54 29.4341 41.9 29.5941 41.22C29.7674 40.54 29.8541 39.92 29.8541 39.36C29.8541 39.2 29.8407 39.0267 29.8141 38.84C29.8007 38.6533 29.7607 38.48 29.6941 38.32C29.6407 38.16 29.5474 38.0267 29.4141 37.92C29.2941 37.8 29.1274 37.74 28.9141 37.74C28.4874 37.74 28.0941 37.8467 27.7341 38.06C27.3741 38.2733 27.0474 38.56 26.7541 38.92C26.4741 39.2667 26.2274 39.6667 26.0141 40.12C25.8007 40.56 25.6141 41.0133 25.4541 41.48C25.3074 41.9333 25.2007 42.38 25.1341 42.82C25.0674 43.26 25.0341 43.64 25.0341 43.96ZM37.8174 47.86C37.404 47.86 36.964 47.8733 36.4974 47.9C36.044 47.9267 35.584 47.9667 35.1174 48.02C34.6507 48.0733 34.1907 48.1467 33.7374 48.24C33.2974 48.32 32.8974 48.42 32.5374 48.54C32.6174 47.94 32.7107 47.2733 32.8174 46.54C32.924 45.8067 33.044 45.0467 33.1774 44.26C33.324 43.4733 33.464 42.68 33.5974 41.88C33.744 41.08 33.8907 40.3133 34.0374 39.58C34.3707 37.8333 34.724 36.0533 35.0974 34.24L38.5974 33.78C38.2374 35.3267 37.8907 36.8333 37.5574 38.3C37.4107 38.9267 37.264 39.58 37.1174 40.26C36.9707 40.9267 36.8307 41.58 36.6974 42.22C36.564 42.86 36.444 43.48 36.3374 44.08C36.2307 44.68 36.144 45.2133 36.0774 45.68C36.4107 45.6533 36.764 45.64 37.1374 45.64C37.524 45.6267 37.864 45.62 38.1574 45.62C38.1707 45.8733 38.1907 46.1267 38.2174 46.38C38.244 46.62 38.2707 46.84 38.2974 47.04C38.3374 47.24 38.364 47.42 38.3774 47.58C38.404 47.7267 38.424 47.8267 38.4374 47.88C38.3307 47.88 38.224 47.88 38.1174 47.88C38.024 47.8667 37.924 47.86 37.8174 47.86ZM49.5125 38.28C49.5125 38.9733 49.4125 39.7133 49.2125 40.5C49.0125 41.2733 48.7325 42.0467 48.3725 42.82C48.0125 43.58 47.5659 44.3133 47.0325 45.02C46.5125 45.7133 45.9192 46.3267 45.2525 46.86C44.5859 47.38 43.8525 47.8 43.0525 48.12C42.2659 48.44 41.4259 48.6 40.5325 48.6C40.3459 48.6 40.1592 48.5867 39.9725 48.56C39.7859 48.5467 39.5992 48.5267 39.4125 48.5C39.7725 46.66 40.1259 44.8667 40.4725 43.12C40.6059 42.3867 40.7459 41.6267 40.8925 40.84C41.0392 40.04 41.1792 39.2533 41.3125 38.48C41.4459 37.7067 41.5725 36.9667 41.6925 36.26C41.8259 35.5533 41.9325 34.9133 42.0125 34.34C42.5859 34.2333 43.1659 34.1333 43.7525 34.04C44.3392 33.9467 44.9392 33.9 45.5525 33.9C46.2725 33.9 46.8792 34.0133 47.3725 34.24C47.8792 34.4667 48.2859 34.78 48.5925 35.18C48.9125 35.58 49.1459 36.0467 49.2925 36.58C49.4392 37.1133 49.5125 37.68 49.5125 38.28ZM44.7925 36.72C44.6459 37.5067 44.4925 38.26 44.3325 38.98C44.1725 39.7 44.0125 40.4267 43.8525 41.16C43.6925 41.8933 43.5325 42.66 43.3725 43.46C43.2125 44.26 43.0592 45.1333 42.9125 46.08C43.2325 45.8667 43.5392 45.58 43.8325 45.22C44.1392 44.8467 44.4259 44.42 44.6925 43.94C44.9592 43.46 45.1992 42.9533 45.4125 42.42C45.6392 41.8867 45.8325 41.3667 45.9925 40.86C46.1525 40.3533 46.2725 39.88 46.3525 39.44C46.4459 39 46.4925 38.62 46.4925 38.3C46.4925 37.8067 46.3525 37.42 46.0725 37.14C45.8059 36.86 45.3792 36.72 44.7925 36.72Z" fill="black"/>
</svg>
