<svg width="60" height="61" viewBox="0 0 60 61" fill="none" xmlns="http://www.w3.org/2000/svg">
<path d="M60 4.09999L0 0.5L4.01915 60.5L57.6 59.3L60 4.09999Z" fill="white"/>
<path d="M16.2123 26.16C15.7856 26.2533 15.3456 26.34 14.8923 26.42C15.1589 25.22 15.4189 24.02 15.6723 22.82C15.7789 22.3133 15.8856 21.78 15.9923 21.22C16.1123 20.6467 16.2256 20.08 16.3323 19.52C16.4523 18.9467 16.5656 18.38 16.6723 17.82C16.7789 17.26 16.8723 16.7333 16.9523 16.24C16.6323 16.2667 16.3189 16.3067 16.0123 16.36C15.7589 16.4 15.4923 16.4467 15.2123 16.5C14.9456 16.54 14.7189 16.5733 14.5323 16.6C14.5589 16.4133 14.5989 16.1333 14.6523 15.76C14.7056 15.3733 14.7656 14.98 14.8323 14.58C14.8856 14.1267 14.9523 13.6333 15.0323 13.1C15.3389 13.0333 15.7656 12.9467 16.3123 12.84C16.7789 12.76 17.3989 12.66 18.1723 12.54C18.9456 12.42 19.9056 12.2667 21.0523 12.08C20.7723 13.2533 20.5123 14.3933 20.2723 15.5C20.0456 16.6067 19.8256 17.7133 19.6123 18.82C19.4123 19.9267 19.2123 21.0467 19.0123 22.18C18.8256 23.3 18.6389 24.4533 18.4523 25.64C18.1456 25.7333 17.7923 25.8267 17.3923 25.92C16.9923 26.0133 16.5989 26.0933 16.2123 26.16ZM30.9785 16.66C30.9785 17.38 30.9185 18.12 30.7985 18.88C30.6785 19.64 30.4918 20.3867 30.2385 21.12C29.9985 21.84 29.6985 22.5267 29.3385 23.18C28.9918 23.8333 28.5852 24.4067 28.1185 24.9C27.6518 25.38 27.1318 25.7667 26.5585 26.06C25.9985 26.34 25.3852 26.48 24.7185 26.48C24.1052 26.48 23.5785 26.3667 23.1385 26.14C22.7118 25.9133 22.3585 25.6067 22.0785 25.22C21.8118 24.82 21.6118 24.36 21.4785 23.84C21.3452 23.3067 21.2785 22.7333 21.2785 22.12C21.2785 21.4133 21.3585 20.66 21.5185 19.86C21.6785 19.06 21.9052 18.28 22.1985 17.52C22.5052 16.76 22.8718 16.0333 23.2985 15.34C23.7252 14.6467 24.1852 14.04 24.6785 13.52C25.1852 13 25.7252 12.5867 26.2985 12.28C26.8718 11.96 27.4652 11.8 28.0785 11.8C28.5718 11.8 28.9985 11.9267 29.3585 12.18C29.7318 12.4333 30.0385 12.78 30.2785 13.22C30.5185 13.66 30.6918 14.18 30.7985 14.78C30.9185 15.3667 30.9785 15.9933 30.9785 16.66ZM24.2785 21.46C24.2785 21.9533 24.3585 22.3533 24.5185 22.66C24.6785 22.9667 24.9452 23.12 25.3185 23.12C25.8118 23.12 26.2652 22.9533 26.6785 22.62C27.0918 22.2867 27.4452 21.8733 27.7385 21.38C28.0318 20.8733 28.2585 20.3267 28.4185 19.74C28.5785 19.14 28.6585 18.5733 28.6585 18.04C28.6585 17.4667 28.5452 16.98 28.3185 16.58C28.1052 16.18 27.7585 15.98 27.2785 15.98C26.8918 15.98 26.5185 16.1667 26.1585 16.54C25.7985 16.9 25.4785 17.36 25.1985 17.92C24.9318 18.4667 24.7118 19.06 24.5385 19.7C24.3652 20.34 24.2785 20.9267 24.2785 21.46ZM37.8512 25.02C37.3578 25.7533 36.8912 26.44 36.4512 27.08L33.1312 26.3C33.2778 26.1533 33.5245 25.84 33.8712 25.36C34.2178 24.8667 34.6245 24.28 35.0912 23.6C35.5712 22.92 36.0912 22.1667 36.6512 21.34C37.2112 20.5133 37.7778 19.6733 38.3512 18.82C38.9378 17.9667 39.5045 17.1333 40.0512 16.32C40.6112 15.4933 41.1112 14.74 41.5512 14.06C42.0045 13.38 42.3778 12.8067 42.6712 12.34C42.9778 11.86 43.1778 11.54 43.2712 11.38C43.7112 11.4867 44.1512 11.58 44.5912 11.66C44.9378 11.74 45.2978 11.8133 45.6712 11.88C46.0445 11.9467 46.3378 11.9933 46.5512 12.02C45.9778 12.86 45.3245 13.8267 44.5912 14.92C43.8578 16.0133 43.0978 17.1467 42.3112 18.32C42.7245 17.8933 43.1645 17.5467 43.6312 17.28C44.1112 17.0133 44.6178 16.88 45.1512 16.88C45.5245 16.88 45.8512 16.9667 46.1312 17.14C46.4112 17.3 46.6445 17.52 46.8312 17.8C47.0178 18.08 47.1512 18.4133 47.2312 18.8C47.3112 19.1867 47.3512 19.5933 47.3512 20.02C47.3512 20.6867 47.2512 21.38 47.0512 22.1C46.8512 22.82 46.5578 23.48 46.1712 24.08C45.7845 24.6667 45.3112 25.1533 44.7512 25.54C44.2045 25.9133 43.5845 26.1 42.8912 26.1C42.4378 26.1 42.0445 26.0267 41.7112 25.88C41.3912 25.7333 41.1245 25.5333 40.9112 25.28C40.6978 25.0267 40.5445 24.7267 40.4512 24.38C40.3578 24.0333 40.3112 23.6667 40.3112 23.28C40.3112 22.7867 40.3712 22.28 40.4912 21.76C40.6245 21.2267 40.8178 20.7067 41.0712 20.2C40.4445 21.12 39.8512 21.9933 39.2912 22.82C38.7445 23.6467 38.2645 24.38 37.8512 25.02ZM34.9912 17.04C34.9912 17.3067 35.0445 17.5333 35.1512 17.72C35.2712 17.8933 35.4578 17.98 35.7112 17.98C36.0178 17.98 36.2912 17.9067 36.5312 17.76C36.7712 17.6 36.9778 17.4067 37.1512 17.18C37.3245 16.94 37.4578 16.68 37.5512 16.4C37.6445 16.12 37.6912 15.8467 37.6912 15.58C37.6912 15.26 37.6112 14.9867 37.4512 14.76C37.3045 14.5333 37.0712 14.42 36.7512 14.42C36.5112 14.42 36.2845 14.5133 36.0712 14.7C35.8578 14.8733 35.6712 15.0933 35.5112 15.36C35.3645 15.6133 35.2378 15.8933 35.1312 16.2C35.0378 16.5067 34.9912 16.7867 34.9912 17.04ZM39.6312 14.34C39.6312 14.9933 39.5245 15.6867 39.3112 16.42C39.1112 17.14 38.8245 17.8 38.4512 18.4C38.0778 18.9867 37.6112 19.4733 37.0512 19.86C36.5045 20.2333 35.8778 20.42 35.1712 20.42C34.7178 20.42 34.3245 20.3467 33.9912 20.2C33.6712 20.0533 33.4045 19.8533 33.1912 19.6C32.9912 19.3467 32.8378 19.0467 32.7312 18.7C32.6378 18.3533 32.5912 17.9867 32.5912 17.6C32.5912 16.92 32.7178 16.2067 32.9712 15.46C33.2245 14.7 33.5712 14.0067 34.0112 13.38C34.4645 12.74 34.9778 12.2133 35.5512 11.8C36.1378 11.3867 36.7645 11.18 37.4312 11.18C37.8178 11.18 38.1445 11.2667 38.4112 11.44C38.6912 11.6133 38.9178 11.84 39.0912 12.12C39.2778 12.4 39.4112 12.7333 39.4912 13.12C39.5845 13.4933 39.6312 13.9 39.6312 14.34ZM42.7112 22.74C42.7112 22.9933 42.7645 23.2133 42.8712 23.4C42.9778 23.5733 43.1645 23.66 43.4312 23.66C43.7245 23.66 43.9912 23.5867 44.2312 23.44C44.4845 23.28 44.6978 23.0867 44.8712 22.86C45.0445 22.62 45.1778 22.36 45.2712 22.08C45.3645 21.8 45.4112 21.5267 45.4112 21.26C45.4112 20.94 45.3312 20.6733 45.1712 20.46C45.0245 20.2333 44.7912 20.12 44.4712 20.12C44.2312 20.12 44.0045 20.2067 43.7912 20.38C43.5778 20.5533 43.3912 20.7733 43.2312 21.04C43.0845 21.2933 42.9578 21.5733 42.8512 21.88C42.7578 22.1867 42.7112 22.4733 42.7112 22.74ZM20.6998 43.56C20.6998 44.3067 20.5532 44.9867 20.2598 45.6C19.9798 46.2 19.5932 46.72 19.0998 47.16C18.6198 47.6 18.0465 47.94 17.3798 48.18C16.7265 48.42 16.0198 48.54 15.2598 48.54C14.7265 48.54 14.1932 48.4 13.6598 48.12C13.1265 47.8267 12.6132 47.3667 12.1198 46.74L13.5998 43.84C13.6932 44.0133 13.8332 44.1933 14.0198 44.38C14.2065 44.5533 14.4132 44.7067 14.6398 44.84C14.8798 44.9733 15.1132 45.0867 15.3398 45.18C15.5798 45.26 15.7932 45.3 15.9798 45.3C16.1398 45.3 16.3065 45.2733 16.4798 45.22C16.6532 45.1667 16.8132 45.0867 16.9598 44.98C17.1065 44.8733 17.2198 44.7533 17.2998 44.62C17.3932 44.4733 17.4398 44.3067 17.4398 44.12C17.4398 43.8 17.3332 43.5067 17.1198 43.24C16.9198 42.96 16.6665 42.7 16.3598 42.46C16.0532 42.2067 15.7198 41.9533 15.3598 41.7C14.9998 41.4467 14.6665 41.18 14.3598 40.9C14.0665 40.62 13.8132 40.3067 13.5998 39.96C13.3865 39.6133 13.2798 39.2267 13.2798 38.8C13.2798 38.1067 13.4865 37.46 13.8998 36.86C14.3132 36.26 14.8265 35.7467 15.4398 35.32C16.0665 34.88 16.7465 34.5333 17.4798 34.28C18.2132 34.0267 18.9065 33.9 19.5598 33.9C19.9198 33.9 20.2598 33.9467 20.5798 34.04C20.8998 34.12 21.1732 34.26 21.3998 34.46C21.6398 34.6467 21.8265 34.8867 21.9598 35.18C22.1065 35.4733 22.1798 35.84 22.1798 36.28C22.1798 36.4667 22.1598 36.6533 22.1198 36.84C22.0932 37.0267 22.0665 37.2267 22.0398 37.44L19.1398 38.28C19.1665 38.1733 19.1865 38.0667 19.1998 37.96C19.2265 37.8533 19.2398 37.7467 19.2398 37.64C19.2398 37.24 19.1665 36.9533 19.0198 36.78C18.8865 36.5933 18.7065 36.5 18.4798 36.5C18.3732 36.5 18.2398 36.54 18.0798 36.62C17.9332 36.7 17.7798 36.8067 17.6198 36.94C17.4732 37.06 17.3465 37.2067 17.2398 37.38C17.1332 37.5533 17.0798 37.74 17.0798 37.94C17.0798 38.26 17.1665 38.5267 17.3398 38.74C17.5265 38.9533 17.7532 39.1533 18.0198 39.34C18.2865 39.5267 18.5732 39.72 18.8798 39.92C19.1998 40.1067 19.4932 40.3533 19.7598 40.66C20.0265 40.9667 20.2465 41.3533 20.4198 41.82C20.6065 42.2733 20.6998 42.8533 20.6998 43.56ZM32.6336 37.68C32.6336 38.7733 32.5136 39.8067 32.2736 40.78C32.0469 41.74 31.7403 42.6267 31.3536 43.44C30.9669 44.24 30.5136 44.96 29.9936 45.6C29.4869 46.2267 28.9536 46.7667 28.3936 47.22C27.8336 47.66 27.2669 48 26.6936 48.24C26.1203 48.4667 25.5736 48.58 25.0536 48.58C24.6136 48.58 24.2136 48.5 23.8536 48.34C23.4936 48.1667 23.1803 47.92 22.9136 47.6C22.6469 47.2667 22.4336 46.8467 22.2736 46.34C22.1269 45.82 22.0536 45.2 22.0536 44.48C22.0536 43.7333 22.1469 42.9467 22.3336 42.12C22.5203 41.2933 22.7736 40.4733 23.0936 39.66C23.4136 38.8467 23.8069 38.0733 24.2736 37.34C24.7403 36.6067 25.2536 35.96 25.8136 35.4C26.3736 34.8267 26.9736 34.3733 27.6136 34.04C28.2536 33.7067 28.9203 33.54 29.6136 33.54C30.2136 33.54 30.7069 33.6667 31.0936 33.92C31.4936 34.16 31.8003 34.48 32.0136 34.88C32.2403 35.2667 32.4003 35.7067 32.4936 36.2C32.5869 36.6933 32.6336 37.1867 32.6336 37.68ZM25.0336 43.96C25.0336 44.1067 25.0603 44.26 25.1136 44.42C25.1669 44.58 25.2403 44.72 25.3336 44.84C25.4269 44.96 25.5403 45.0667 25.6736 45.16C25.8203 45.24 25.9736 45.28 26.1336 45.28C26.7336 45.28 27.2669 45.0733 27.7336 44.66C28.2003 44.2467 28.5869 43.74 28.8936 43.14C29.2003 42.54 29.4336 41.9 29.5936 41.22C29.7669 40.54 29.8536 39.92 29.8536 39.36C29.8536 39.2 29.8403 39.0267 29.8136 38.84C29.8003 38.6533 29.7603 38.48 29.6936 38.32C29.6403 38.16 29.5469 38.0267 29.4136 37.92C29.2936 37.8 29.1269 37.74 28.9136 37.74C28.4869 37.74 28.0936 37.8467 27.7336 38.06C27.3736 38.2733 27.0469 38.56 26.7536 38.92C26.4736 39.2667 26.2269 39.6667 26.0136 40.12C25.8003 40.56 25.6136 41.0133 25.4536 41.48C25.3069 41.9333 25.2003 42.38 25.1336 42.82C25.0669 43.26 25.0336 43.64 25.0336 43.96ZM37.8169 47.86C37.4035 47.86 36.9635 47.8733 36.4969 47.9C36.0435 47.9267 35.5835 47.9667 35.1169 48.02C34.6502 48.0733 34.1902 48.1467 33.7369 48.24C33.2969 48.32 32.8969 48.42 32.5369 48.54C32.6169 47.94 32.7102 47.2733 32.8169 46.54C32.9235 45.8067 33.0435 45.0467 33.1769 44.26C33.3235 43.4733 33.4635 42.68 33.5969 41.88C33.7435 41.08 33.8902 40.3133 34.0369 39.58C34.3702 37.8333 34.7235 36.0533 35.0969 34.24L38.5969 33.78C38.2369 35.3267 37.8902 36.8333 37.5569 38.3C37.4102 38.9267 37.2635 39.58 37.1169 40.26C36.9702 40.9267 36.8302 41.58 36.6969 42.22C36.5635 42.86 36.4435 43.48 36.3369 44.08C36.2302 44.68 36.1435 45.2133 36.0769 45.68C36.4102 45.6533 36.7635 45.64 37.1369 45.64C37.5235 45.6267 37.8635 45.62 38.1569 45.62C38.1702 45.8733 38.1902 46.1267 38.2169 46.38C38.2435 46.62 38.2702 46.84 38.2969 47.04C38.3369 47.24 38.3635 47.42 38.3769 47.58C38.4035 47.7267 38.4235 47.8267 38.4369 47.88C38.3302 47.88 38.2235 47.88 38.1169 47.88C38.0235 47.8667 37.9235 47.86 37.8169 47.86ZM49.512 38.28C49.512 38.9733 49.412 39.7133 49.212 40.5C49.012 41.2733 48.732 42.0467 48.372 42.82C48.012 43.58 47.5654 44.3133 47.032 45.02C46.512 45.7133 45.9187 46.3267 45.252 46.86C44.5854 47.38 43.852 47.8 43.052 48.12C42.2654 48.44 41.4254 48.6 40.532 48.6C40.3454 48.6 40.1587 48.5867 39.972 48.56C39.7854 48.5467 39.5987 48.5267 39.412 48.5C39.772 46.66 40.1254 44.8667 40.472 43.12C40.6054 42.3867 40.7454 41.6267 40.892 40.84C41.0387 40.04 41.1787 39.2533 41.312 38.48C41.4454 37.7067 41.572 36.9667 41.692 36.26C41.8254 35.5533 41.932 34.9133 42.012 34.34C42.5854 34.2333 43.1654 34.1333 43.752 34.04C44.3387 33.9467 44.9387 33.9 45.552 33.9C46.272 33.9 46.8787 34.0133 47.372 34.24C47.8787 34.4667 48.2854 34.78 48.592 35.18C48.912 35.58 49.1454 36.0467 49.292 36.58C49.4387 37.1133 49.512 37.68 49.512 38.28ZM44.792 36.72C44.6454 37.5067 44.492 38.26 44.332 38.98C44.172 39.7 44.012 40.4267 43.852 41.16C43.692 41.8933 43.532 42.66 43.372 43.46C43.212 44.26 43.0587 45.1333 42.912 46.08C43.232 45.8667 43.5387 45.58 43.832 45.22C44.1387 44.8467 44.4254 44.42 44.692 43.94C44.9587 43.46 45.1987 42.9533 45.412 42.42C45.6387 41.8867 45.832 41.3667 45.992 40.86C46.152 40.3533 46.272 39.88 46.352 39.44C46.4454 39 46.492 38.62 46.492 38.3C46.492 37.8067 46.352 37.42 46.072 37.14C45.8054 36.86 45.3787 36.72 44.792 36.72Z" fill="black"/>
</svg>