<svg width="60" height="61" viewBox="0 0 60 61" fill="none" xmlns="http://www.w3.org/2000/svg">
<path d="M60 4.09999L0 0.5L4.01915 60.5L57.6 59.3L60 4.09999Z" fill="white"/>
<path d="M15.9284 26.54L16.3284 23.34L12.8884 23.6L12.0084 21.8C12.4484 20.48 12.8684 19.22 13.2684 18.02C13.4417 17.5133 13.615 16.9933 13.7884 16.46C13.9617 15.9133 14.1284 15.3867 14.2884 14.88C14.4617 14.3733 14.6217 13.8933 14.7684 13.44C14.915 12.9867 15.0484 12.5933 15.1684 12.26C15.7284 12.26 16.255 12.2467 16.7484 12.22C17.255 12.18 17.795 12.12 18.3684 12.04C17.875 13.28 17.415 14.5267 16.9884 15.78C16.575 17.0333 16.1684 18.3067 15.7684 19.6C15.755 19.6933 15.7417 19.7733 15.7284 19.84C15.715 19.9067 15.695 19.9867 15.6684 20.08H17.0884C17.1017 19.9867 17.1284 19.84 17.1684 19.64C17.2084 19.4267 17.255 19.18 17.3084 18.9C17.3617 18.62 17.415 18.3133 17.4684 17.98C17.535 17.6467 17.6017 17.3067 17.6684 16.96C17.8017 16.1867 17.9617 15.34 18.1484 14.42C18.575 14.3533 19.0084 14.2933 19.4484 14.24C19.8084 14.1867 20.1817 14.14 20.5684 14.1C20.955 14.06 21.2884 14.0267 21.5684 14C21.555 14.1333 21.515 14.36 21.4484 14.68C21.395 15 21.3284 15.36 21.2484 15.76C21.1817 16.16 21.1084 16.5867 21.0284 17.04C20.9617 17.4933 20.8884 17.92 20.8084 18.32C20.7284 18.72 20.6617 19.08 20.6084 19.4C20.555 19.72 20.515 19.9467 20.4884 20.08H21.6284L20.8084 23.28H19.7884L19.6084 25.9L15.9284 26.54ZM32.4824 16.66C32.4824 17.38 32.4224 18.12 32.3024 18.88C32.1824 19.64 31.9958 20.3867 31.7424 21.12C31.5024 21.84 31.2024 22.5267 30.8424 23.18C30.4958 23.8333 30.0891 24.4067 29.6224 24.9C29.1558 25.38 28.6358 25.7667 28.0624 26.06C27.5024 26.34 26.8891 26.48 26.2224 26.48C25.6091 26.48 25.0824 26.3667 24.6424 26.14C24.2158 25.9133 23.8624 25.6067 23.5824 25.22C23.3158 24.82 23.1158 24.36 22.9824 23.84C22.8491 23.3067 22.7824 22.7333 22.7824 22.12C22.7824 21.4133 22.8624 20.66 23.0224 19.86C23.1824 19.06 23.4091 18.28 23.7024 17.52C24.0091 16.76 24.3758 16.0333 24.8024 15.34C25.2291 14.6467 25.6891 14.04 26.1824 13.52C26.6891 13 27.2291 12.5867 27.8024 12.28C28.3758 11.96 28.9691 11.8 29.5824 11.8C30.0758 11.8 30.5024 11.9267 30.8624 12.18C31.2358 12.4333 31.5424 12.78 31.7824 13.22C32.0224 13.66 32.1958 14.18 32.3024 14.78C32.4224 15.3667 32.4824 15.9933 32.4824 16.66ZM25.7824 21.46C25.7824 21.9533 25.8624 22.3533 26.0224 22.66C26.1824 22.9667 26.4491 23.12 26.8224 23.12C27.3158 23.12 27.7691 22.9533 28.1824 22.62C28.5958 22.2867 28.9491 21.8733 29.2424 21.38C29.5358 20.8733 29.7624 20.3267 29.9224 19.74C30.0824 19.14 30.1624 18.5733 30.1624 18.04C30.1624 17.4667 30.0491 16.98 29.8224 16.58C29.6091 16.18 29.2624 15.98 28.7824 15.98C28.3958 15.98 28.0224 16.1667 27.6624 16.54C27.3024 16.9 26.9824 17.36 26.7024 17.92C26.4358 18.4667 26.2158 19.06 26.0424 19.7C25.8691 20.34 25.7824 20.9267 25.7824 21.46ZM39.3551 25.02C38.8617 25.7533 38.3951 26.44 37.9551 27.08L34.6351 26.3C34.7817 26.1533 35.0284 25.84 35.3751 25.36C35.7217 24.8667 36.1284 24.28 36.5951 23.6C37.0751 22.92 37.5951 22.1667 38.1551 21.34C38.7151 20.5133 39.2817 19.6733 39.8551 18.82C40.4417 17.9667 41.0084 17.1333 41.5551 16.32C42.1151 15.4933 42.6151 14.74 43.0551 14.06C43.5084 13.38 43.8817 12.8067 44.1751 12.34C44.4817 11.86 44.6817 11.54 44.7751 11.38C45.2151 11.4867 45.6551 11.58 46.0951 11.66C46.4417 11.74 46.8017 11.8133 47.1751 11.88C47.5484 11.9467 47.8417 11.9933 48.0551 12.02C47.4817 12.86 46.8284 13.8267 46.0951 14.92C45.3617 16.0133 44.6017 17.1467 43.8151 18.32C44.2284 17.8933 44.6684 17.5467 45.1351 17.28C45.6151 17.0133 46.1217 16.88 46.6551 16.88C47.0284 16.88 47.3551 16.9667 47.6351 17.14C47.9151 17.3 48.1484 17.52 48.3351 17.8C48.5217 18.08 48.6551 18.4133 48.7351 18.8C48.8151 19.1867 48.8551 19.5933 48.8551 20.02C48.8551 20.6867 48.7551 21.38 48.5551 22.1C48.3551 22.82 48.0617 23.48 47.6751 24.08C47.2884 24.6667 46.8151 25.1533 46.2551 25.54C45.7084 25.9133 45.0884 26.1 44.3951 26.1C43.9417 26.1 43.5484 26.0267 43.2151 25.88C42.8951 25.7333 42.6284 25.5333 42.4151 25.28C42.2017 25.0267 42.0484 24.7267 41.9551 24.38C41.8617 24.0333 41.8151 23.6667 41.8151 23.28C41.8151 22.7867 41.8751 22.28 41.9951 21.76C42.1284 21.2267 42.3217 20.7067 42.5751 20.2C41.9484 21.12 41.3551 21.9933 40.7951 22.82C40.2484 23.6467 39.7684 24.38 39.3551 25.02ZM36.4951 17.04C36.4951 17.3067 36.5484 17.5333 36.6551 17.72C36.7751 17.8933 36.9617 17.98 37.2151 17.98C37.5217 17.98 37.7951 17.9067 38.0351 17.76C38.2751 17.6 38.4817 17.4067 38.6551 17.18C38.8284 16.94 38.9617 16.68 39.0551 16.4C39.1484 16.12 39.1951 15.8467 39.1951 15.58C39.1951 15.26 39.1151 14.9867 38.9551 14.76C38.8084 14.5333 38.5751 14.42 38.2551 14.42C38.0151 14.42 37.7884 14.5133 37.5751 14.7C37.3617 14.8733 37.1751 15.0933 37.0151 15.36C36.8684 15.6133 36.7417 15.8933 36.6351 16.2C36.5417 16.5067 36.4951 16.7867 36.4951 17.04ZM41.1351 14.34C41.1351 14.9933 41.0284 15.6867 40.8151 16.42C40.6151 17.14 40.3284 17.8 39.9551 18.4C39.5817 18.9867 39.1151 19.4733 38.5551 19.86C38.0084 20.2333 37.3817 20.42 36.6751 20.42C36.2217 20.42 35.8284 20.3467 35.4951 20.2C35.1751 20.0533 34.9084 19.8533 34.6951 19.6C34.4951 19.3467 34.3417 19.0467 34.2351 18.7C34.1417 18.3533 34.0951 17.9867 34.0951 17.6C34.0951 16.92 34.2217 16.2067 34.4751 15.46C34.7284 14.7 35.0751 14.0067 35.5151 13.38C35.9684 12.74 36.4817 12.2133 37.0551 11.8C37.6417 11.3867 38.2684 11.18 38.9351 11.18C39.3217 11.18 39.6484 11.2667 39.9151 11.44C40.1951 11.6133 40.4217 11.84 40.5951 12.12C40.7817 12.4 40.9151 12.7333 40.9951 13.12C41.0884 13.4933 41.1351 13.9 41.1351 14.34ZM44.2151 22.74C44.2151 22.9933 44.2684 23.2133 44.3751 23.4C44.4817 23.5733 44.6684 23.66 44.9351 23.66C45.2284 23.66 45.4951 23.5867 45.7351 23.44C45.9884 23.28 46.2017 23.0867 46.3751 22.86C46.5484 22.62 46.6817 22.36 46.7751 22.08C46.8684 21.8 46.9151 21.5267 46.9151 21.26C46.9151 20.94 46.8351 20.6733 46.6751 20.46C46.5284 20.2333 46.2951 20.12 45.9751 20.12C45.7351 20.12 45.5084 20.2067 45.2951 20.38C45.0817 20.5533 44.8951 20.7733 44.7351 21.04C44.5884 21.2933 44.4617 21.5733 44.3551 21.88C44.2617 22.1867 44.2151 22.4733 44.2151 22.74ZM20.6998 43.56C20.6998 44.3067 20.5532 44.9867 20.2598 45.6C19.9798 46.2 19.5932 46.72 19.0998 47.16C18.6198 47.6 18.0465 47.94 17.3798 48.18C16.7265 48.42 16.0198 48.54 15.2598 48.54C14.7265 48.54 14.1932 48.4 13.6598 48.12C13.1265 47.8267 12.6132 47.3667 12.1198 46.74L13.5998 43.84C13.6932 44.0133 13.8332 44.1933 14.0198 44.38C14.2065 44.5533 14.4132 44.7067 14.6398 44.84C14.8798 44.9733 15.1132 45.0867 15.3398 45.18C15.5798 45.26 15.7932 45.3 15.9798 45.3C16.1398 45.3 16.3065 45.2733 16.4798 45.22C16.6532 45.1667 16.8132 45.0867 16.9598 44.98C17.1065 44.8733 17.2198 44.7533 17.2998 44.62C17.3932 44.4733 17.4398 44.3067 17.4398 44.12C17.4398 43.8 17.3332 43.5067 17.1198 43.24C16.9198 42.96 16.6665 42.7 16.3598 42.46C16.0532 42.2067 15.7198 41.9533 15.3598 41.7C14.9998 41.4467 14.6665 41.18 14.3598 40.9C14.0665 40.62 13.8132 40.3067 13.5998 39.96C13.3865 39.6133 13.2798 39.2267 13.2798 38.8C13.2798 38.1067 13.4865 37.46 13.8998 36.86C14.3132 36.26 14.8265 35.7467 15.4398 35.32C16.0665 34.88 16.7465 34.5333 17.4798 34.28C18.2132 34.0267 18.9065 33.9 19.5598 33.9C19.9198 33.9 20.2598 33.9467 20.5798 34.04C20.8998 34.12 21.1732 34.26 21.3998 34.46C21.6398 34.6467 21.8265 34.8867 21.9598 35.18C22.1065 35.4733 22.1798 35.84 22.1798 36.28C22.1798 36.4667 22.1598 36.6533 22.1198 36.84C22.0932 37.0267 22.0665 37.2267 22.0398 37.44L19.1398 38.28C19.1665 38.1733 19.1865 38.0667 19.1998 37.96C19.2265 37.8533 19.2398 37.7467 19.2398 37.64C19.2398 37.24 19.1665 36.9533 19.0198 36.78C18.8865 36.5933 18.7065 36.5 18.4798 36.5C18.3732 36.5 18.2398 36.54 18.0798 36.62C17.9332 36.7 17.7798 36.8067 17.6198 36.94C17.4732 37.06 17.3465 37.2067 17.2398 37.38C17.1332 37.5533 17.0798 37.74 17.0798 37.94C17.0798 38.26 17.1665 38.5267 17.3398 38.74C17.5265 38.9533 17.7532 39.1533 18.0198 39.34C18.2865 39.5267 18.5732 39.72 18.8798 39.92C19.1998 40.1067 19.4932 40.3533 19.7598 40.66C20.0265 40.9667 20.2465 41.3533 20.4198 41.82C20.6065 42.2733 20.6998 42.8533 20.6998 43.56ZM32.6336 37.68C32.6336 38.7733 32.5136 39.8067 32.2736 40.78C32.0469 41.74 31.7403 42.6267 31.3536 43.44C30.9669 44.24 30.5136 44.96 29.9936 45.6C29.4869 46.2267 28.9536 46.7667 28.3936 47.22C27.8336 47.66 27.2669 48 26.6936 48.24C26.1203 48.4667 25.5736 48.58 25.0536 48.58C24.6136 48.58 24.2136 48.5 23.8536 48.34C23.4936 48.1667 23.1803 47.92 22.9136 47.6C22.6469 47.2667 22.4336 46.8467 22.2736 46.34C22.1269 45.82 22.0536 45.2 22.0536 44.48C22.0536 43.7333 22.1469 42.9467 22.3336 42.12C22.5203 41.2933 22.7736 40.4733 23.0936 39.66C23.4136 38.8467 23.8069 38.0733 24.2736 37.34C24.7403 36.6067 25.2536 35.96 25.8136 35.4C26.3736 34.8267 26.9736 34.3733 27.6136 34.04C28.2536 33.7067 28.9203 33.54 29.6136 33.54C30.2136 33.54 30.7069 33.6667 31.0936 33.92C31.4936 34.16 31.8003 34.48 32.0136 34.88C32.2403 35.2667 32.4003 35.7067 32.4936 36.2C32.5869 36.6933 32.6336 37.1867 32.6336 37.68ZM25.0336 43.96C25.0336 44.1067 25.0603 44.26 25.1136 44.42C25.1669 44.58 25.2403 44.72 25.3336 44.84C25.4269 44.96 25.5403 45.0667 25.6736 45.16C25.8203 45.24 25.9736 45.28 26.1336 45.28C26.7336 45.28 27.2669 45.0733 27.7336 44.66C28.2003 44.2467 28.5869 43.74 28.8936 43.14C29.2003 42.54 29.4336 41.9 29.5936 41.22C29.7669 40.54 29.8536 39.92 29.8536 39.36C29.8536 39.2 29.8403 39.0267 29.8136 38.84C29.8003 38.6533 29.7603 38.48 29.6936 38.32C29.6403 38.16 29.5469 38.0267 29.4136 37.92C29.2936 37.8 29.1269 37.74 28.9136 37.74C28.4869 37.74 28.0936 37.8467 27.7336 38.06C27.3736 38.2733 27.0469 38.56 26.7536 38.92C26.4736 39.2667 26.2269 39.6667 26.0136 40.12C25.8003 40.56 25.6136 41.0133 25.4536 41.48C25.3069 41.9333 25.2003 42.38 25.1336 42.82C25.0669 43.26 25.0336 43.64 25.0336 43.96ZM37.8169 47.86C37.4035 47.86 36.9635 47.8733 36.4969 47.9C36.0435 47.9267 35.5835 47.9667 35.1169 48.02C34.6502 48.0733 34.1902 48.1467 33.7369 48.24C33.2969 48.32 32.8969 48.42 32.5369 48.54C32.6169 47.94 32.7102 47.2733 32.8169 46.54C32.9235 45.8067 33.0435 45.0467 33.1769 44.26C33.3235 43.4733 33.4635 42.68 33.5969 41.88C33.7435 41.08 33.8902 40.3133 34.0369 39.58C34.3702 37.8333 34.7235 36.0533 35.0969 34.24L38.5969 33.78C38.2369 35.3267 37.8902 36.8333 37.5569 38.3C37.4102 38.9267 37.2635 39.58 37.1169 40.26C36.9702 40.9267 36.8302 41.58 36.6969 42.22C36.5635 42.86 36.4435 43.48 36.3369 44.08C36.2302 44.68 36.1435 45.2133 36.0769 45.68C36.4102 45.6533 36.7635 45.64 37.1369 45.64C37.5235 45.6267 37.8635 45.62 38.1569 45.62C38.1702 45.8733 38.1902 46.1267 38.2169 46.38C38.2435 46.62 38.2702 46.84 38.2969 47.04C38.3369 47.24 38.3635 47.42 38.3769 47.58C38.4035 47.7267 38.4235 47.8267 38.4369 47.88C38.3302 47.88 38.2235 47.88 38.1169 47.88C38.0235 47.8667 37.9235 47.86 37.8169 47.86ZM49.512 38.28C49.512 38.9733 49.412 39.7133 49.212 40.5C49.012 41.2733 48.732 42.0467 48.372 42.82C48.012 43.58 47.5654 44.3133 47.032 45.02C46.512 45.7133 45.9187 46.3267 45.252 46.86C44.5854 47.38 43.852 47.8 43.052 48.12C42.2654 48.44 41.4254 48.6 40.532 48.6C40.3454 48.6 40.1587 48.5867 39.972 48.56C39.7854 48.5467 39.5987 48.5267 39.412 48.5C39.772 46.66 40.1254 44.8667 40.472 43.12C40.6054 42.3867 40.7454 41.6267 40.892 40.84C41.0387 40.04 41.1787 39.2533 41.312 38.48C41.4454 37.7067 41.572 36.9667 41.692 36.26C41.8254 35.5533 41.932 34.9133 42.012 34.34C42.5854 34.2333 43.1654 34.1333 43.752 34.04C44.3387 33.9467 44.9387 33.9 45.552 33.9C46.272 33.9 46.8787 34.0133 47.372 34.24C47.8787 34.4667 48.2854 34.78 48.592 35.18C48.912 35.58 49.1454 36.0467 49.292 36.58C49.4387 37.1133 49.512 37.68 49.512 38.28ZM44.792 36.72C44.6454 37.5067 44.492 38.26 44.332 38.98C44.172 39.7 44.012 40.4267 43.852 41.16C43.692 41.8933 43.532 42.66 43.372 43.46C43.212 44.26 43.0587 45.1333 42.912 46.08C43.232 45.8667 43.5387 45.58 43.832 45.22C44.1387 44.8467 44.4254 44.42 44.692 43.94C44.9587 43.46 45.1987 42.9533 45.412 42.42C45.6387 41.8867 45.832 41.3667 45.992 40.86C46.152 40.3533 46.272 39.88 46.352 39.44C46.4454 39 46.492 38.62 46.492 38.3C46.492 37.8067 46.352 37.42 46.072 37.14C45.8054 36.86 45.3787 36.72 44.792 36.72Z" fill="black"/>
</svg>
