<svg width="60" height="61" viewBox="0 0 60 61" fill="none" xmlns="http://www.w3.org/2000/svg">
<path d="M-3.49998e-06 56.9L60 60.5L55.9809 0.499996L2.4 1.69999L-3.49998e-06 56.9Z" fill="white"/>
<path d="M21.4563 20.2C21.4563 20.6667 21.3763 21.1467 21.2163 21.64C21.0563 22.1333 20.8363 22.62 20.5563 23.1C20.2896 23.5667 19.9696 24.0133 19.5963 24.44C19.2229 24.8667 18.8229 25.24 18.3963 25.56C17.9829 25.88 17.5496 26.1333 17.0963 26.32C16.6429 26.5067 16.2029 26.6 15.7763 26.6C15.2696 26.6 14.8096 26.5133 14.3963 26.34C13.9963 26.1667 13.6563 25.9267 13.3763 25.62C13.1096 25.3 12.9029 24.92 12.7563 24.48C12.6096 24.04 12.5363 23.56 12.5363 23.04C12.5363 22.7867 12.5429 22.52 12.5563 22.24C12.5829 21.96 12.6096 21.6667 12.6363 21.36L15.7163 21.6C15.6496 21.8 15.6163 21.96 15.6163 22.08C15.6163 22.3467 15.6963 22.54 15.8563 22.66C16.0163 22.78 16.2029 22.84 16.4163 22.84C16.5896 22.84 16.7629 22.8067 16.9362 22.74C17.1229 22.66 17.2896 22.54 17.4363 22.38C17.5963 22.22 17.7229 22.02 17.8163 21.78C17.9096 21.54 17.9563 21.26 17.9563 20.94C17.9563 20.78 17.9296 20.6267 17.8763 20.48C17.8363 20.32 17.7363 20.1867 17.5763 20.08C17.4296 19.9733 17.2163 19.8867 16.9362 19.82C16.6563 19.74 16.2896 19.7 15.8363 19.7C15.7163 19.7 15.5896 19.7067 15.4563 19.72C15.3363 19.72 15.1696 19.7333 14.9563 19.76C14.7429 19.7867 14.4829 19.8267 14.1763 19.88C13.8829 19.92 13.5029 19.98 13.0363 20.06C13.1829 19.06 13.3629 17.9133 13.5763 16.62C13.7896 15.3133 14.0496 13.84 14.3563 12.2L21.9763 11.92L21.5763 15.18C20.8296 15.2067 20.0696 15.2333 19.2963 15.26C18.5363 15.2867 17.7563 15.32 16.9563 15.36C16.9296 15.5467 16.8963 15.7867 16.8563 16.08C16.8296 16.3733 16.7963 16.6933 16.7563 17.04C17.6096 17.04 18.3363 17.12 18.9363 17.28C19.5363 17.44 20.0229 17.66 20.3963 17.94C20.7696 18.22 21.0363 18.5533 21.1963 18.94C21.3696 19.3133 21.4563 19.7333 21.4563 20.2ZM32.3945 16.66C32.3945 17.38 32.3345 18.12 32.2145 18.88C32.0945 19.64 31.9079 20.3867 31.6545 21.12C31.4145 21.84 31.1145 22.5267 30.7545 23.18C30.4079 23.8333 30.0012 24.4067 29.5345 24.9C29.0679 25.38 28.5479 25.7667 27.9745 26.06C27.4145 26.34 26.8012 26.48 26.1345 26.48C25.5212 26.48 24.9945 26.3667 24.5545 26.14C24.1279 25.9133 23.7745 25.6067 23.4945 25.22C23.2279 24.82 23.0279 24.36 22.8945 23.84C22.7612 23.3067 22.6945 22.7333 22.6945 22.12C22.6945 21.4133 22.7745 20.66 22.9345 19.86C23.0945 19.06 23.3212 18.28 23.6145 17.52C23.9212 16.76 24.2879 16.0333 24.7145 15.34C25.1412 14.6467 25.6012 14.04 26.0945 13.52C26.6012 13 27.1412 12.5867 27.7145 12.28C28.2879 11.96 28.8812 11.8 29.4945 11.8C29.9879 11.8 30.4145 11.9267 30.7745 12.18C31.1479 12.4333 31.4545 12.78 31.6945 13.22C31.9345 13.66 32.1079 14.18 32.2145 14.78C32.3345 15.3667 32.3945 15.9933 32.3945 16.66ZM25.6945 21.46C25.6945 21.9533 25.7745 22.3533 25.9345 22.66C26.0945 22.9667 26.3612 23.12 26.7345 23.12C27.2279 23.12 27.6812 22.9533 28.0945 22.62C28.5079 22.2867 28.8612 21.8733 29.1545 21.38C29.4479 20.8733 29.6745 20.3267 29.8345 19.74C29.9945 19.14 30.0745 18.5733 30.0745 18.04C30.0745 17.4667 29.9612 16.98 29.7345 16.58C29.5212 16.18 29.1745 15.98 28.6945 15.98C28.3079 15.98 27.9345 16.1667 27.5745 16.54C27.2145 16.9 26.8945 17.36 26.6145 17.92C26.3479 18.4667 26.1279 19.06 25.9545 19.7C25.7812 20.34 25.6945 20.9267 25.6945 21.46ZM39.2672 25.02C38.7739 25.7533 38.3072 26.44 37.8672 27.08L34.5472 26.3C34.6939 26.1533 34.9405 25.84 35.2872 25.36C35.6339 24.8667 36.0405 24.28 36.5072 23.6C36.9872 22.92 37.5072 22.1667 38.0672 21.34C38.6272 20.5133 39.1939 19.6733 39.7672 18.82C40.3539 17.9667 40.9205 17.1333 41.4672 16.32C42.0272 15.4933 42.5272 14.74 42.9672 14.06C43.4205 13.38 43.7939 12.8067 44.0872 12.34C44.3939 11.86 44.5939 11.54 44.6872 11.38C45.1272 11.4867 45.5672 11.58 46.0072 11.66C46.3539 11.74 46.7139 11.8133 47.0872 11.88C47.4605 11.9467 47.7539 11.9933 47.9672 12.02C47.3939 12.86 46.7405 13.8267 46.0072 14.92C45.2739 16.0133 44.5139 17.1467 43.7272 18.32C44.1405 17.8933 44.5805 17.5467 45.0472 17.28C45.5272 17.0133 46.0339 16.88 46.5672 16.88C46.9405 16.88 47.2672 16.9667 47.5472 17.14C47.8272 17.3 48.0605 17.52 48.2472 17.8C48.4339 18.08 48.5672 18.4133 48.6472 18.8C48.7272 19.1867 48.7672 19.5933 48.7672 20.02C48.7672 20.6867 48.6672 21.38 48.4672 22.1C48.2672 22.82 47.9739 23.48 47.5872 24.08C47.2005 24.6667 46.7272 25.1533 46.1672 25.54C45.6205 25.9133 45.0005 26.1 44.3072 26.1C43.8539 26.1 43.4605 26.0267 43.1272 25.88C42.8072 25.7333 42.5405 25.5333 42.3272 25.28C42.1139 25.0267 41.9605 24.7267 41.8672 24.38C41.7739 24.0333 41.7272 23.6667 41.7272 23.28C41.7272 22.7867 41.7872 22.28 41.9072 21.76C42.0405 21.2267 42.2339 20.7067 42.4872 20.2C41.8605 21.12 41.2672 21.9933 40.7072 22.82C40.1605 23.6467 39.6805 24.38 39.2672 25.02ZM36.4072 17.04C36.4072 17.3067 36.4605 17.5333 36.5672 17.72C36.6872 17.8933 36.8739 17.98 37.1272 17.98C37.4339 17.98 37.7072 17.9067 37.9472 17.76C38.1872 17.6 38.3939 17.4067 38.5672 17.18C38.7405 16.94 38.8739 16.68 38.9672 16.4C39.0605 16.12 39.1072 15.8467 39.1072 15.58C39.1072 15.26 39.0272 14.9867 38.8672 14.76C38.7205 14.5333 38.4872 14.42 38.1672 14.42C37.9272 14.42 37.7005 14.5133 37.4872 14.7C37.2739 14.8733 37.0872 15.0933 36.9272 15.36C36.7805 15.6133 36.6539 15.8933 36.5472 16.2C36.4539 16.5067 36.4072 16.7867 36.4072 17.04ZM41.0472 14.34C41.0472 14.9933 40.9405 15.6867 40.7272 16.42C40.5272 17.14 40.2405 17.8 39.8672 18.4C39.4939 18.9867 39.0272 19.4733 38.4672 19.86C37.9205 20.2333 37.2939 20.42 36.5872 20.42C36.1339 20.42 35.7405 20.3467 35.4072 20.2C35.0872 20.0533 34.8205 19.8533 34.6072 19.6C34.4072 19.3467 34.2539 19.0467 34.1472 18.7C34.0539 18.3533 34.0072 17.9867 34.0072 17.6C34.0072 16.92 34.1339 16.2067 34.3872 15.46C34.6405 14.7 34.9872 14.0067 35.4272 13.38C35.8805 12.74 36.3939 12.2133 36.9672 11.8C37.5539 11.3867 38.1805 11.18 38.8472 11.18C39.2339 11.18 39.5605 11.2667 39.8272 11.44C40.1072 11.6133 40.3339 11.84 40.5072 12.12C40.6939 12.4 40.8272 12.7333 40.9072 13.12C41.0005 13.4933 41.0472 13.9 41.0472 14.34ZM44.1272 22.74C44.1272 22.9933 44.1805 23.2133 44.2872 23.4C44.3939 23.5733 44.5805 23.66 44.8472 23.66C45.1405 23.66 45.4072 23.5867 45.6472 23.44C45.9005 23.28 46.1139 23.0867 46.2872 22.86C46.4605 22.62 46.5939 22.36 46.6872 22.08C46.7805 21.8 46.8272 21.5267 46.8272 21.26C46.8272 20.94 46.7472 20.6733 46.5872 20.46C46.4405 20.2333 46.2072 20.12 45.8872 20.12C45.6472 20.12 45.4205 20.2067 45.2072 20.38C44.9939 20.5533 44.8072 20.7733 44.6472 21.04C44.5005 21.2933 44.3739 21.5733 44.2672 21.88C44.1739 22.1867 44.1272 22.4733 44.1272 22.74ZM20.6998 43.56C20.6998 44.3067 20.5532 44.9867 20.2598 45.6C19.9798 46.2 19.5932 46.72 19.0998 47.16C18.6198 47.6 18.0465 47.94 17.3798 48.18C16.7265 48.42 16.0198 48.54 15.2598 48.54C14.7265 48.54 14.1932 48.4 13.6598 48.12C13.1265 47.8267 12.6132 47.3667 12.1198 46.74L13.5998 43.84C13.6932 44.0133 13.8332 44.1933 14.0198 44.38C14.2065 44.5533 14.4132 44.7067 14.6398 44.84C14.8798 44.9733 15.1132 45.0867 15.3398 45.18C15.5798 45.26 15.7932 45.3 15.9798 45.3C16.1398 45.3 16.3065 45.2733 16.4798 45.22C16.6532 45.1667 16.8132 45.0867 16.9598 44.98C17.1065 44.8733 17.2198 44.7533 17.2998 44.62C17.3932 44.4733 17.4398 44.3067 17.4398 44.12C17.4398 43.8 17.3332 43.5067 17.1198 43.24C16.9198 42.96 16.6665 42.7 16.3598 42.46C16.0532 42.2067 15.7198 41.9533 15.3598 41.7C14.9998 41.4467 14.6665 41.18 14.3598 40.9C14.0665 40.62 13.8132 40.3067 13.5998 39.96C13.3865 39.6133 13.2798 39.2267 13.2798 38.8C13.2798 38.1067 13.4865 37.46 13.8998 36.86C14.3132 36.26 14.8265 35.7467 15.4398 35.32C16.0665 34.88 16.7465 34.5333 17.4798 34.28C18.2132 34.0267 18.9065 33.9 19.5598 33.9C19.9198 33.9 20.2598 33.9467 20.5798 34.04C20.8998 34.12 21.1732 34.26 21.3998 34.46C21.6398 34.6467 21.8265 34.8867 21.9598 35.18C22.1065 35.4733 22.1798 35.84 22.1798 36.28C22.1798 36.4667 22.1598 36.6533 22.1198 36.84C22.0932 37.0267 22.0665 37.2267 22.0398 37.44L19.1398 38.28C19.1665 38.1733 19.1865 38.0667 19.1998 37.96C19.2265 37.8533 19.2398 37.7467 19.2398 37.64C19.2398 37.24 19.1665 36.9533 19.0198 36.78C18.8865 36.5933 18.7065 36.5 18.4798 36.5C18.3732 36.5 18.2398 36.54 18.0798 36.62C17.9332 36.7 17.7798 36.8067 17.6198 36.94C17.4732 37.06 17.3465 37.2067 17.2398 37.38C17.1332 37.5533 17.0798 37.74 17.0798 37.94C17.0798 38.26 17.1665 38.5267 17.3398 38.74C17.5265 38.9533 17.7532 39.1533 18.0198 39.34C18.2865 39.5267 18.5732 39.72 18.8798 39.92C19.1998 40.1067 19.4932 40.3533 19.7598 40.66C20.0265 40.9667 20.2465 41.3533 20.4198 41.82C20.6065 42.2733 20.6998 42.8533 20.6998 43.56ZM32.6336 37.68C32.6336 38.7733 32.5136 39.8067 32.2736 40.78C32.0469 41.74 31.7403 42.6267 31.3536 43.44C30.9669 44.24 30.5136 44.96 29.9936 45.6C29.4869 46.2267 28.9536 46.7667 28.3936 47.22C27.8336 47.66 27.2669 48 26.6936 48.24C26.1203 48.4667 25.5736 48.58 25.0536 48.58C24.6136 48.58 24.2136 48.5 23.8536 48.34C23.4936 48.1667 23.1803 47.92 22.9136 47.6C22.6469 47.2667 22.4336 46.8467 22.2736 46.34C22.1269 45.82 22.0536 45.2 22.0536 44.48C22.0536 43.7333 22.1469 42.9467 22.3336 42.12C22.5203 41.2933 22.7736 40.4733 23.0936 39.66C23.4136 38.8467 23.8069 38.0733 24.2736 37.34C24.7403 36.6067 25.2536 35.96 25.8136 35.4C26.3736 34.8267 26.9736 34.3733 27.6136 34.04C28.2536 33.7067 28.9203 33.54 29.6136 33.54C30.2136 33.54 30.7069 33.6667 31.0936 33.92C31.4936 34.16 31.8003 34.48 32.0136 34.88C32.2403 35.2667 32.4003 35.7067 32.4936 36.2C32.5869 36.6933 32.6336 37.1867 32.6336 37.68ZM25.0336 43.96C25.0336 44.1067 25.0603 44.26 25.1136 44.42C25.1669 44.58 25.2403 44.72 25.3336 44.84C25.4269 44.96 25.5403 45.0667 25.6736 45.16C25.8203 45.24 25.9736 45.28 26.1336 45.28C26.7336 45.28 27.2669 45.0733 27.7336 44.66C28.2003 44.2467 28.5869 43.74 28.8936 43.14C29.2003 42.54 29.4336 41.9 29.5936 41.22C29.7669 40.54 29.8536 39.92 29.8536 39.36C29.8536 39.2 29.8403 39.0267 29.8136 38.84C29.8003 38.6533 29.7603 38.48 29.6936 38.32C29.6403 38.16 29.5469 38.0267 29.4136 37.92C29.2936 37.8 29.1269 37.74 28.9136 37.74C28.4869 37.74 28.0936 37.8467 27.7336 38.06C27.3736 38.2733 27.0469 38.56 26.7536 38.92C26.4736 39.2667 26.2269 39.6667 26.0136 40.12C25.8003 40.56 25.6136 41.0133 25.4536 41.48C25.3069 41.9333 25.2003 42.38 25.1336 42.82C25.0669 43.26 25.0336 43.64 25.0336 43.96ZM37.8169 47.86C37.4035 47.86 36.9635 47.8733 36.4969 47.9C36.0435 47.9267 35.5835 47.9667 35.1169 48.02C34.6502 48.0733 34.1902 48.1467 33.7369 48.24C33.2969 48.32 32.8969 48.42 32.5369 48.54C32.6169 47.94 32.7102 47.2733 32.8169 46.54C32.9235 45.8067 33.0435 45.0467 33.1769 44.26C33.3235 43.4733 33.4635 42.68 33.5969 41.88C33.7435 41.08 33.8902 40.3133 34.0369 39.58C34.3702 37.8333 34.7235 36.0533 35.0969 34.24L38.5969 33.78C38.2369 35.3267 37.8902 36.8333 37.5569 38.3C37.4102 38.9267 37.2635 39.58 37.1169 40.26C36.9702 40.9267 36.8302 41.58 36.6969 42.22C36.5635 42.86 36.4435 43.48 36.3369 44.08C36.2302 44.68 36.1435 45.2133 36.0769 45.68C36.4102 45.6533 36.7635 45.64 37.1369 45.64C37.5235 45.6267 37.8635 45.62 38.1569 45.62C38.1702 45.8733 38.1902 46.1267 38.2169 46.38C38.2435 46.62 38.2702 46.84 38.2969 47.04C38.3369 47.24 38.3635 47.42 38.3769 47.58C38.4035 47.7267 38.4235 47.8267 38.4369 47.88C38.3302 47.88 38.2235 47.88 38.1169 47.88C38.0235 47.8667 37.9235 47.86 37.8169 47.86ZM49.512 38.28C49.512 38.9733 49.412 39.7133 49.212 40.5C49.012 41.2733 48.732 42.0467 48.372 42.82C48.012 43.58 47.5654 44.3133 47.032 45.02C46.512 45.7133 45.9187 46.3267 45.252 46.86C44.5854 47.38 43.852 47.8 43.052 48.12C42.2654 48.44 41.4254 48.6 40.532 48.6C40.3454 48.6 40.1587 48.5867 39.972 48.56C39.7854 48.5467 39.5987 48.5267 39.412 48.5C39.772 46.66 40.1254 44.8667 40.472 43.12C40.6054 42.3867 40.7454 41.6267 40.892 40.84C41.0387 40.04 41.1787 39.2533 41.312 38.48C41.4454 37.7067 41.572 36.9667 41.692 36.26C41.8254 35.5533 41.932 34.9133 42.012 34.34C42.5854 34.2333 43.1654 34.1333 43.752 34.04C44.3387 33.9467 44.9387 33.9 45.552 33.9C46.272 33.9 46.8787 34.0133 47.372 34.24C47.8787 34.4667 48.2854 34.78 48.592 35.18C48.912 35.58 49.1454 36.0467 49.292 36.58C49.4387 37.1133 49.512 37.68 49.512 38.28ZM44.792 36.72C44.6454 37.5067 44.492 38.26 44.332 38.98C44.172 39.7 44.012 40.4267 43.852 41.16C43.692 41.8933 43.532 42.66 43.372 43.46C43.212 44.26 43.0587 45.1333 42.912 46.08C43.232 45.8667 43.5387 45.58 43.832 45.22C44.1387 44.8467 44.4254 44.42 44.692 43.94C44.9587 43.46 45.1987 42.9533 45.412 42.42C45.6387 41.8867 45.832 41.3667 45.992 40.86C46.152 40.3533 46.272 39.88 46.352 39.44C46.4454 39 46.492 38.62 46.492 38.3C46.492 37.8067 46.352 37.42 46.072 37.14C45.8054 36.86 45.3787 36.72 44.792 36.72Z" fill="black"/>
</svg>
