<svg width="60" height="61" viewBox="0 0 60 61" fill="none" xmlns="http://www.w3.org/2000/svg">
<path d="M60 4.09999L0 0.5L4.01915 60.5L57.6 59.3L60 4.09999Z" fill="white"/>
<path d="M21.56 22.02C21.56 22.5533 21.46 23.0867 21.26 23.62C21.06 24.14 20.76 24.6067 20.36 25.02C19.96 25.42 19.4533 25.7533 18.84 26.02C18.24 26.2733 17.5333 26.4 16.72 26.4C16.16 26.4 15.6267 26.3 15.12 26.1C14.6133 25.8867 14.1667 25.5733 13.78 25.16C13.4067 24.7467 13.1067 24.2333 12.88 23.62C12.6533 23.0067 12.54 22.28 12.54 21.44C12.54 19.8133 12.7533 18.3933 13.18 17.18C13.62 15.9533 14.1667 14.94 14.82 14.14C15.4867 13.3267 16.2067 12.7267 16.98 12.34C17.7533 11.94 18.48 11.74 19.16 11.74C19.6533 11.74 20.0867 11.8333 20.46 12.02C20.8333 12.2067 21.1467 12.46 21.4 12.78C21.6533 13.0867 21.84 13.4467 21.96 13.86C22.08 14.2733 22.14 14.72 22.14 15.2L19.4 16.5C19.4 16.0067 19.3333 15.6467 19.2 15.42C19.0667 15.1933 18.8867 15.08 18.66 15.08C18.5133 15.08 18.34 15.1733 18.14 15.36C17.9533 15.5467 17.76 15.8067 17.56 16.14C17.3733 16.4733 17.1867 16.8733 17 17.34C16.8267 17.7933 16.6733 18.2933 16.54 18.84C17.1267 18.6667 17.6733 18.58 18.18 18.58C18.74 18.58 19.2267 18.68 19.64 18.88C20.0533 19.0667 20.4 19.32 20.68 19.64C20.9733 19.96 21.1933 20.3267 21.34 20.74C21.4867 21.1533 21.56 21.58 21.56 22.02ZM16.08 21.68C16.08 22.3067 16.18 22.7533 16.38 23.02C16.58 23.2733 16.8067 23.4 17.06 23.4C17.3267 23.4 17.5733 23.3533 17.8 23.26C18.0267 23.1667 18.22 23.0467 18.38 22.9C18.5533 22.7533 18.6867 22.58 18.78 22.38C18.8867 22.18 18.94 21.9867 18.94 21.8C18.94 21.5867 18.8267 21.4 18.6 21.24C18.3733 21.08 17.9667 21 17.38 21C17.1933 21 16.9933 21.0133 16.78 21.04C16.58 21.0667 16.3533 21.12 16.1 21.2C16.0867 21.28 16.08 21.36 16.08 21.44C16.08 21.52 16.08 21.6 16.08 21.68ZM32.5508 16.66C32.5508 17.38 32.4908 18.12 32.3708 18.88C32.2508 19.64 32.0641 20.3867 31.8108 21.12C31.5708 21.84 31.2708 22.5267 30.9108 23.18C30.5641 23.8333 30.1574 24.4067 29.6908 24.9C29.2241 25.38 28.7041 25.7667 28.1308 26.06C27.5708 26.34 26.9574 26.48 26.2908 26.48C25.6774 26.48 25.1508 26.3667 24.7108 26.14C24.2841 25.9133 23.9308 25.6067 23.6508 25.22C23.3841 24.82 23.1841 24.36 23.0508 23.84C22.9174 23.3067 22.8508 22.7333 22.8508 22.12C22.8508 21.4133 22.9308 20.66 23.0908 19.86C23.2508 19.06 23.4774 18.28 23.7708 17.52C24.0774 16.76 24.4441 16.0333 24.8708 15.34C25.2974 14.6467 25.7574 14.04 26.2508 13.52C26.7574 13 27.2974 12.5867 27.8708 12.28C28.4441 11.96 29.0374 11.8 29.6508 11.8C30.1441 11.8 30.5708 11.9267 30.9308 12.18C31.3041 12.4333 31.6108 12.78 31.8508 13.22C32.0908 13.66 32.2641 14.18 32.3708 14.78C32.4908 15.3667 32.5508 15.9933 32.5508 16.66ZM25.8508 21.46C25.8508 21.9533 25.9308 22.3533 26.0908 22.66C26.2508 22.9667 26.5174 23.12 26.8908 23.12C27.3841 23.12 27.8374 22.9533 28.2508 22.62C28.6641 22.2867 29.0174 21.8733 29.3108 21.38C29.6041 20.8733 29.8308 20.3267 29.9908 19.74C30.1508 19.14 30.2308 18.5733 30.2308 18.04C30.2308 17.4667 30.1174 16.98 29.8908 16.58C29.6774 16.18 29.3308 15.98 28.8508 15.98C28.4641 15.98 28.0908 16.1667 27.7308 16.54C27.3708 16.9 27.0508 17.36 26.7708 17.92C26.5041 18.4667 26.2841 19.06 26.1108 19.7C25.9374 20.34 25.8508 20.9267 25.8508 21.46ZM39.4234 25.02C38.9301 25.7533 38.4634 26.44 38.0234 27.08L34.7034 26.3C34.8501 26.1533 35.0968 25.84 35.4434 25.36C35.7901 24.8667 36.1968 24.28 36.6634 23.6C37.1434 22.92 37.6634 22.1667 38.2234 21.34C38.7834 20.5133 39.3501 19.6733 39.9234 18.82C40.5101 17.9667 41.0768 17.1333 41.6234 16.32C42.1834 15.4933 42.6834 14.74 43.1234 14.06C43.5768 13.38 43.9501 12.8067 44.2434 12.34C44.5501 11.86 44.7501 11.54 44.8434 11.38C45.2834 11.4867 45.7234 11.58 46.1634 11.66C46.5101 11.74 46.8701 11.8133 47.2434 11.88C47.6168 11.9467 47.9101 11.9933 48.1234 12.02C47.5501 12.86 46.8968 13.8267 46.1634 14.92C45.4301 16.0133 44.6701 17.1467 43.8834 18.32C44.2968 17.8933 44.7368 17.5467 45.2034 17.28C45.6834 17.0133 46.1901 16.88 46.7234 16.88C47.0968 16.88 47.4234 16.9667 47.7034 17.14C47.9834 17.3 48.2168 17.52 48.4034 17.8C48.5901 18.08 48.7234 18.4133 48.8034 18.8C48.8834 19.1867 48.9234 19.5933 48.9234 20.02C48.9234 20.6867 48.8234 21.38 48.6234 22.1C48.4234 22.82 48.1301 23.48 47.7434 24.08C47.3568 24.6667 46.8834 25.1533 46.3234 25.54C45.7768 25.9133 45.1568 26.1 44.4634 26.1C44.0101 26.1 43.6168 26.0267 43.2834 25.88C42.9634 25.7333 42.6968 25.5333 42.4834 25.28C42.2701 25.0267 42.1168 24.7267 42.0234 24.38C41.9301 24.0333 41.8834 23.6667 41.8834 23.28C41.8834 22.7867 41.9434 22.28 42.0634 21.76C42.1968 21.2267 42.3901 20.7067 42.6434 20.2C42.0168 21.12 41.4234 21.9933 40.8634 22.82C40.3168 23.6467 39.8368 24.38 39.4234 25.02ZM36.5634 17.04C36.5634 17.3067 36.6168 17.5333 36.7234 17.72C36.8434 17.8933 37.0301 17.98 37.2834 17.98C37.5901 17.98 37.8634 17.9067 38.1034 17.76C38.3434 17.6 38.5501 17.4067 38.7234 17.18C38.8968 16.94 39.0301 16.68 39.1234 16.4C39.2168 16.12 39.2634 15.8467 39.2634 15.58C39.2634 15.26 39.1834 14.9867 39.0234 14.76C38.8768 14.5333 38.6434 14.42 38.3234 14.42C38.0834 14.42 37.8568 14.5133 37.6434 14.7C37.4301 14.8733 37.2434 15.0933 37.0834 15.36C36.9368 15.6133 36.8101 15.8933 36.7034 16.2C36.6101 16.5067 36.5634 16.7867 36.5634 17.04ZM41.2034 14.34C41.2034 14.9933 41.0968 15.6867 40.8834 16.42C40.6834 17.14 40.3968 17.8 40.0234 18.4C39.6501 18.9867 39.1834 19.4733 38.6234 19.86C38.0768 20.2333 37.4501 20.42 36.7434 20.42C36.2901 20.42 35.8968 20.3467 35.5634 20.2C35.2434 20.0533 34.9768 19.8533 34.7634 19.6C34.5634 19.3467 34.4101 19.0467 34.3034 18.7C34.2101 18.3533 34.1634 17.9867 34.1634 17.6C34.1634 16.92 34.2901 16.2067 34.5434 15.46C34.7968 14.7 35.1434 14.0067 35.5834 13.38C36.0368 12.74 36.5501 12.2133 37.1234 11.8C37.7101 11.3867 38.3368 11.18 39.0034 11.18C39.3901 11.18 39.7168 11.2667 39.9834 11.44C40.2634 11.6133 40.4901 11.84 40.6634 12.12C40.8501 12.4 40.9834 12.7333 41.0634 13.12C41.1568 13.4933 41.2034 13.9 41.2034 14.34ZM44.2834 22.74C44.2834 22.9933 44.3368 23.2133 44.4434 23.4C44.5501 23.5733 44.7368 23.66 45.0034 23.66C45.2968 23.66 45.5634 23.5867 45.8034 23.44C46.0568 23.28 46.2701 23.0867 46.4434 22.86C46.6168 22.62 46.7501 22.36 46.8434 22.08C46.9368 21.8 46.9834 21.5267 46.9834 21.26C46.9834 20.94 46.9034 20.6733 46.7434 20.46C46.5968 20.2333 46.3634 20.12 46.0434 20.12C45.8034 20.12 45.5768 20.2067 45.3634 20.38C45.1501 20.5533 44.9634 20.7733 44.8034 21.04C44.6568 21.2933 44.5301 21.5733 44.4234 21.88C44.3301 22.1867 44.2834 22.4733 44.2834 22.74ZM20.6998 43.56C20.6998 44.3067 20.5532 44.9867 20.2598 45.6C19.9798 46.2 19.5932 46.72 19.0998 47.16C18.6198 47.6 18.0465 47.94 17.3798 48.18C16.7265 48.42 16.0198 48.54 15.2598 48.54C14.7265 48.54 14.1932 48.4 13.6598 48.12C13.1265 47.8267 12.6132 47.3667 12.1198 46.74L13.5998 43.84C13.6932 44.0133 13.8332 44.1933 14.0198 44.38C14.2065 44.5533 14.4132 44.7067 14.6398 44.84C14.8798 44.9733 15.1132 45.0867 15.3398 45.18C15.5798 45.26 15.7932 45.3 15.9798 45.3C16.1398 45.3 16.3065 45.2733 16.4798 45.22C16.6532 45.1667 16.8132 45.0867 16.9598 44.98C17.1065 44.8733 17.2198 44.7533 17.2998 44.62C17.3932 44.4733 17.4398 44.3067 17.4398 44.12C17.4398 43.8 17.3332 43.5067 17.1198 43.24C16.9198 42.96 16.6665 42.7 16.3598 42.46C16.0532 42.2067 15.7198 41.9533 15.3598 41.7C14.9998 41.4467 14.6665 41.18 14.3598 40.9C14.0665 40.62 13.8132 40.3067 13.5998 39.96C13.3865 39.6133 13.2798 39.2267 13.2798 38.8C13.2798 38.1067 13.4865 37.46 13.8998 36.86C14.3132 36.26 14.8265 35.7467 15.4398 35.32C16.0665 34.88 16.7465 34.5333 17.4798 34.28C18.2132 34.0267 18.9065 33.9 19.5598 33.9C19.9198 33.9 20.2598 33.9467 20.5798 34.04C20.8998 34.12 21.1732 34.26 21.3998 34.46C21.6398 34.6467 21.8265 34.8867 21.9598 35.18C22.1065 35.4733 22.1798 35.84 22.1798 36.28C22.1798 36.4667 22.1598 36.6533 22.1198 36.84C22.0932 37.0267 22.0665 37.2267 22.0398 37.44L19.1398 38.28C19.1665 38.1733 19.1865 38.0667 19.1998 37.96C19.2265 37.8533 19.2398 37.7467 19.2398 37.64C19.2398 37.24 19.1665 36.9533 19.0198 36.78C18.8865 36.5933 18.7065 36.5 18.4798 36.5C18.3732 36.5 18.2398 36.54 18.0798 36.62C17.9332 36.7 17.7798 36.8067 17.6198 36.94C17.4732 37.06 17.3465 37.2067 17.2398 37.38C17.1332 37.5533 17.0798 37.74 17.0798 37.94C17.0798 38.26 17.1665 38.5267 17.3398 38.74C17.5265 38.9533 17.7532 39.1533 18.0198 39.34C18.2865 39.5267 18.5732 39.72 18.8798 39.92C19.1998 40.1067 19.4932 40.3533 19.7598 40.66C20.0265 40.9667 20.2465 41.3533 20.4198 41.82C20.6065 42.2733 20.6998 42.8533 20.6998 43.56ZM32.6336 37.68C32.6336 38.7733 32.5136 39.8067 32.2736 40.78C32.0469 41.74 31.7403 42.6267 31.3536 43.44C30.9669 44.24 30.5136 44.96 29.9936 45.6C29.4869 46.2267 28.9536 46.7667 28.3936 47.22C27.8336 47.66 27.2669 48 26.6936 48.24C26.1203 48.4667 25.5736 48.58 25.0536 48.58C24.6136 48.58 24.2136 48.5 23.8536 48.34C23.4936 48.1667 23.1803 47.92 22.9136 47.6C22.6469 47.2667 22.4336 46.8467 22.2736 46.34C22.1269 45.82 22.0536 45.2 22.0536 44.48C22.0536 43.7333 22.1469 42.9467 22.3336 42.12C22.5203 41.2933 22.7736 40.4733 23.0936 39.66C23.4136 38.8467 23.8069 38.0733 24.2736 37.34C24.7403 36.6067 25.2536 35.96 25.8136 35.4C26.3736 34.8267 26.9736 34.3733 27.6136 34.04C28.2536 33.7067 28.9203 33.54 29.6136 33.54C30.2136 33.54 30.7069 33.6667 31.0936 33.92C31.4936 34.16 31.8003 34.48 32.0136 34.88C32.2403 35.2667 32.4003 35.7067 32.4936 36.2C32.5869 36.6933 32.6336 37.1867 32.6336 37.68ZM25.0336 43.96C25.0336 44.1067 25.0603 44.26 25.1136 44.42C25.1669 44.58 25.2403 44.72 25.3336 44.84C25.4269 44.96 25.5403 45.0667 25.6736 45.16C25.8203 45.24 25.9736 45.28 26.1336 45.28C26.7336 45.28 27.2669 45.0733 27.7336 44.66C28.2003 44.2467 28.5869 43.74 28.8936 43.14C29.2003 42.54 29.4336 41.9 29.5936 41.22C29.7669 40.54 29.8536 39.92 29.8536 39.36C29.8536 39.2 29.8403 39.0267 29.8136 38.84C29.8003 38.6533 29.7603 38.48 29.6936 38.32C29.6403 38.16 29.5469 38.0267 29.4136 37.92C29.2936 37.8 29.1269 37.74 28.9136 37.74C28.4869 37.74 28.0936 37.8467 27.7336 38.06C27.3736 38.2733 27.0469 38.56 26.7536 38.92C26.4736 39.2667 26.2269 39.6667 26.0136 40.12C25.8003 40.56 25.6136 41.0133 25.4536 41.48C25.3069 41.9333 25.2003 42.38 25.1336 42.82C25.0669 43.26 25.0336 43.64 25.0336 43.96ZM37.8169 47.86C37.4035 47.86 36.9635 47.8733 36.4969 47.9C36.0435 47.9267 35.5835 47.9667 35.1169 48.02C34.6502 48.0733 34.1902 48.1467 33.7369 48.24C33.2969 48.32 32.8969 48.42 32.5369 48.54C32.6169 47.94 32.7102 47.2733 32.8169 46.54C32.9235 45.8067 33.0435 45.0467 33.1769 44.26C33.3235 43.4733 33.4635 42.68 33.5969 41.88C33.7435 41.08 33.8902 40.3133 34.0369 39.58C34.3702 37.8333 34.7235 36.0533 35.0969 34.24L38.5969 33.78C38.2369 35.3267 37.8902 36.8333 37.5569 38.3C37.4102 38.9267 37.2635 39.58 37.1169 40.26C36.9702 40.9267 36.8302 41.58 36.6969 42.22C36.5635 42.86 36.4435 43.48 36.3369 44.08C36.2302 44.68 36.1435 45.2133 36.0769 45.68C36.4102 45.6533 36.7635 45.64 37.1369 45.64C37.5235 45.6267 37.8635 45.62 38.1569 45.62C38.1702 45.8733 38.1902 46.1267 38.2169 46.38C38.2435 46.62 38.2702 46.84 38.2969 47.04C38.3369 47.24 38.3635 47.42 38.3769 47.58C38.4035 47.7267 38.4235 47.8267 38.4369 47.88C38.3302 47.88 38.2235 47.88 38.1169 47.88C38.0235 47.8667 37.9235 47.86 37.8169 47.86ZM49.512 38.28C49.512 38.9733 49.412 39.7133 49.212 40.5C49.012 41.2733 48.732 42.0467 48.372 42.82C48.012 43.58 47.5654 44.3133 47.032 45.02C46.512 45.7133 45.9187 46.3267 45.252 46.86C44.5854 47.38 43.852 47.8 43.052 48.12C42.2654 48.44 41.4254 48.6 40.532 48.6C40.3454 48.6 40.1587 48.5867 39.972 48.56C39.7854 48.5467 39.5987 48.5267 39.412 48.5C39.772 46.66 40.1254 44.8667 40.472 43.12C40.6054 42.3867 40.7454 41.6267 40.892 40.84C41.0387 40.04 41.1787 39.2533 41.312 38.48C41.4454 37.7067 41.572 36.9667 41.692 36.26C41.8254 35.5533 41.932 34.9133 42.012 34.34C42.5854 34.2333 43.1654 34.1333 43.752 34.04C44.3387 33.9467 44.9387 33.9 45.552 33.9C46.272 33.9 46.8787 34.0133 47.372 34.24C47.8787 34.4667 48.2854 34.78 48.592 35.18C48.912 35.58 49.1454 36.0467 49.292 36.58C49.4387 37.1133 49.512 37.68 49.512 38.28ZM44.792 36.72C44.6454 37.5067 44.492 38.26 44.332 38.98C44.172 39.7 44.012 40.4267 43.852 41.16C43.692 41.8933 43.532 42.66 43.372 43.46C43.212 44.26 43.0587 45.1333 42.912 46.08C43.232 45.8667 43.5387 45.58 43.832 45.22C44.1387 44.8467 44.4254 44.42 44.692 43.94C44.9587 43.46 45.1987 42.9533 45.412 42.42C45.6387 41.8867 45.832 41.3667 45.992 40.86C46.152 40.3533 46.272 39.88 46.352 39.44C46.4454 39 46.492 38.62 46.492 38.3C46.492 37.8067 46.352 37.42 46.072 37.14C45.8054 36.86 45.3787 36.72 44.792 36.72Z" fill="black"/>
</svg>
