<svg width="60" height="61" viewBox="0 0 60 61" fill="none" xmlns="http://www.w3.org/2000/svg">
<path d="M60 4.09999L0 0.5L4.01915 60.5L57.6 59.3L60 4.09999Z" fill="white"/>
<path d="M21.7596 21.44C21.7596 22.1333 21.5996 22.8 21.2796 23.44C20.9596 24.0667 20.5196 24.6267 19.9596 25.12C19.4129 25.6 18.7663 25.9867 18.0196 26.28C17.2863 26.5733 16.4929 26.72 15.6396 26.72C15.0529 26.72 14.4996 26.6533 13.9796 26.52C13.4729 26.4 13.0329 26.2133 12.6596 25.96C12.2996 25.6933 12.0129 25.3533 11.7996 24.94C11.5996 24.5133 11.4996 24.0067 11.4996 23.42C11.4996 22.9667 11.5529 22.5 11.6596 22.02C11.7796 21.5267 11.9663 21.06 12.2196 20.62C12.4863 20.18 12.8196 19.78 13.2196 19.42C13.6329 19.0467 14.1263 18.76 14.6996 18.56C14.2596 18.2 13.9396 17.8267 13.7396 17.44C13.5529 17.0533 13.4596 16.6533 13.4596 16.24C13.4596 15.6533 13.6329 15.0867 13.9796 14.54C14.3396 13.98 14.7996 13.4867 15.3596 13.06C15.9329 12.6333 16.5796 12.2867 17.2996 12.02C18.0196 11.7533 18.7463 11.62 19.4796 11.62C20.0529 11.62 20.5463 11.7067 20.9596 11.88C21.3863 12.04 21.7396 12.26 22.0196 12.54C22.2996 12.82 22.5063 13.1467 22.6396 13.52C22.7863 13.8933 22.8596 14.2733 22.8596 14.66C22.8596 15.02 22.8063 15.38 22.6996 15.74C22.5929 16.0867 22.4329 16.42 22.2196 16.74C22.0196 17.06 21.7663 17.3533 21.4596 17.62C21.1663 17.8867 20.8263 18.1067 20.4396 18.28C20.9063 18.7733 21.2396 19.2933 21.4396 19.84C21.6529 20.3733 21.7596 20.9067 21.7596 21.44ZM14.3996 22.4C14.3996 22.7333 14.5329 23.0267 14.7996 23.28C15.0663 23.5333 15.5263 23.66 16.1796 23.66C16.6596 23.66 17.0663 23.6067 17.3996 23.5C17.7329 23.3933 17.9996 23.2533 18.1996 23.08C18.3996 22.8933 18.5396 22.6867 18.6196 22.46C18.7129 22.2333 18.7596 22.0133 18.7596 21.8C18.7596 21.12 18.6129 20.6467 18.3196 20.38C18.0396 20.1 17.7063 19.96 17.3196 19.96C16.9996 19.96 16.6663 20.0333 16.3196 20.18C15.9729 20.3133 15.6529 20.5 15.3596 20.74C15.0796 20.9667 14.8463 21.2267 14.6596 21.52C14.4863 21.8133 14.3996 22.1067 14.3996 22.4ZM16.5996 16.54C16.5996 16.8333 16.6929 17.1 16.8796 17.34C17.0796 17.5667 17.3463 17.68 17.6796 17.68C17.9196 17.68 18.1596 17.62 18.3996 17.5C18.6396 17.38 18.8529 17.2333 19.0396 17.06C19.2396 16.8867 19.3996 16.6867 19.5196 16.46C19.6529 16.2333 19.7196 16.0267 19.7196 15.84C19.7196 15.6667 19.6729 15.52 19.5796 15.4C19.4996 15.28 19.3863 15.18 19.2396 15.1C19.1063 15.02 18.9596 14.9667 18.7996 14.94C18.6396 14.9 18.4796 14.88 18.3196 14.88C18.0263 14.88 17.7729 14.9333 17.5596 15.04C17.3463 15.1333 17.1663 15.26 17.0196 15.42C16.8729 15.5667 16.7663 15.74 16.6996 15.94C16.6329 16.14 16.5996 16.34 16.5996 16.54ZM32.9512 16.66C32.9512 17.38 32.8912 18.12 32.7712 18.88C32.6512 19.64 32.4645 20.3867 32.2112 21.12C31.9712 21.84 31.6712 22.5267 31.3112 23.18C30.9645 23.8333 30.5578 24.4067 30.0912 24.9C29.6245 25.38 29.1045 25.7667 28.5312 26.06C27.9712 26.34 27.3578 26.48 26.6912 26.48C26.0778 26.48 25.5512 26.3667 25.1112 26.14C24.6845 25.9133 24.3312 25.6067 24.0512 25.22C23.7845 24.82 23.5845 24.36 23.4512 23.84C23.3178 23.3067 23.2512 22.7333 23.2512 22.12C23.2512 21.4133 23.3312 20.66 23.4912 19.86C23.6512 19.06 23.8778 18.28 24.1712 17.52C24.4778 16.76 24.8445 16.0333 25.2712 15.34C25.6978 14.6467 26.1578 14.04 26.6512 13.52C27.1578 13 27.6978 12.5867 28.2712 12.28C28.8445 11.96 29.4378 11.8 30.0512 11.8C30.5445 11.8 30.9712 11.9267 31.3312 12.18C31.7045 12.4333 32.0112 12.78 32.2512 13.22C32.4912 13.66 32.6645 14.18 32.7712 14.78C32.8912 15.3667 32.9512 15.9933 32.9512 16.66ZM26.2512 21.46C26.2512 21.9533 26.3312 22.3533 26.4912 22.66C26.6512 22.9667 26.9178 23.12 27.2912 23.12C27.7845 23.12 28.2378 22.9533 28.6512 22.62C29.0645 22.2867 29.4178 21.8733 29.7112 21.38C30.0045 20.8733 30.2312 20.3267 30.3912 19.74C30.5512 19.14 30.6312 18.5733 30.6312 18.04C30.6312 17.4667 30.5178 16.98 30.2912 16.58C30.0778 16.18 29.7312 15.98 29.2512 15.98C28.8645 15.98 28.4912 16.1667 28.1312 16.54C27.7712 16.9 27.4512 17.36 27.1712 17.92C26.9045 18.4667 26.6845 19.06 26.5112 19.7C26.3378 20.34 26.2512 20.9267 26.2512 21.46ZM39.8238 25.02C39.3305 25.7533 38.8638 26.44 38.4238 27.08L35.1038 26.3C35.2505 26.1533 35.4972 25.84 35.8438 25.36C36.1905 24.8667 36.5972 24.28 37.0638 23.6C37.5438 22.92 38.0638 22.1667 38.6238 21.34C39.1838 20.5133 39.7505 19.6733 40.3238 18.82C40.9105 17.9667 41.4772 17.1333 42.0238 16.32C42.5838 15.4933 43.0838 14.74 43.5238 14.06C43.9772 13.38 44.3505 12.8067 44.6438 12.34C44.9505 11.86 45.1505 11.54 45.2438 11.38C45.6838 11.4867 46.1238 11.58 46.5638 11.66C46.9105 11.74 47.2705 11.8133 47.6438 11.88C48.0172 11.9467 48.3105 11.9933 48.5238 12.02C47.9505 12.86 47.2972 13.8267 46.5638 14.92C45.8305 16.0133 45.0705 17.1467 44.2838 18.32C44.6972 17.8933 45.1372 17.5467 45.6038 17.28C46.0838 17.0133 46.5905 16.88 47.1238 16.88C47.4972 16.88 47.8238 16.9667 48.1038 17.14C48.3838 17.3 48.6172 17.52 48.8038 17.8C48.9905 18.08 49.1238 18.4133 49.2038 18.8C49.2838 19.1867 49.3238 19.5933 49.3238 20.02C49.3238 20.6867 49.2238 21.38 49.0238 22.1C48.8238 22.82 48.5305 23.48 48.1438 24.08C47.7572 24.6667 47.2838 25.1533 46.7238 25.54C46.1772 25.9133 45.5572 26.1 44.8638 26.1C44.4105 26.1 44.0172 26.0267 43.6838 25.88C43.3638 25.7333 43.0972 25.5333 42.8838 25.28C42.6705 25.0267 42.5172 24.7267 42.4238 24.38C42.3305 24.0333 42.2838 23.6667 42.2838 23.28C42.2838 22.7867 42.3438 22.28 42.4638 21.76C42.5972 21.2267 42.7905 20.7067 43.0438 20.2C42.4172 21.12 41.8238 21.9933 41.2638 22.82C40.7172 23.6467 40.2372 24.38 39.8238 25.02ZM36.9638 17.04C36.9638 17.3067 37.0172 17.5333 37.1238 17.72C37.2438 17.8933 37.4305 17.98 37.6838 17.98C37.9905 17.98 38.2638 17.9067 38.5038 17.76C38.7438 17.6 38.9505 17.4067 39.1238 17.18C39.2972 16.94 39.4305 16.68 39.5238 16.4C39.6172 16.12 39.6638 15.8467 39.6638 15.58C39.6638 15.26 39.5838 14.9867 39.4238 14.76C39.2772 14.5333 39.0438 14.42 38.7238 14.42C38.4838 14.42 38.2572 14.5133 38.0438 14.7C37.8305 14.8733 37.6438 15.0933 37.4838 15.36C37.3372 15.6133 37.2105 15.8933 37.1038 16.2C37.0105 16.5067 36.9638 16.7867 36.9638 17.04ZM41.6038 14.34C41.6038 14.9933 41.4972 15.6867 41.2838 16.42C41.0838 17.14 40.7972 17.8 40.4238 18.4C40.0505 18.9867 39.5838 19.4733 39.0238 19.86C38.4772 20.2333 37.8505 20.42 37.1438 20.42C36.6905 20.42 36.2972 20.3467 35.9638 20.2C35.6438 20.0533 35.3772 19.8533 35.1638 19.6C34.9638 19.3467 34.8105 19.0467 34.7038 18.7C34.6105 18.3533 34.5638 17.9867 34.5638 17.6C34.5638 16.92 34.6905 16.2067 34.9438 15.46C35.1972 14.7 35.5438 14.0067 35.9838 13.38C36.4372 12.74 36.9505 12.2133 37.5238 11.8C38.1105 11.3867 38.7372 11.18 39.4038 11.18C39.7905 11.18 40.1172 11.2667 40.3838 11.44C40.6638 11.6133 40.8905 11.84 41.0638 12.12C41.2505 12.4 41.3838 12.7333 41.4638 13.12C41.5572 13.4933 41.6038 13.9 41.6038 14.34ZM44.6838 22.74C44.6838 22.9933 44.7372 23.2133 44.8438 23.4C44.9505 23.5733 45.1372 23.66 45.4038 23.66C45.6972 23.66 45.9638 23.5867 46.2038 23.44C46.4572 23.28 46.6705 23.0867 46.8438 22.86C47.0172 22.62 47.1505 22.36 47.2438 22.08C47.3372 21.8 47.3838 21.5267 47.3838 21.26C47.3838 20.94 47.3038 20.6733 47.1438 20.46C46.9972 20.2333 46.7638 20.12 46.4438 20.12C46.2038 20.12 45.9772 20.2067 45.7638 20.38C45.5505 20.5533 45.3638 20.7733 45.2038 21.04C45.0572 21.2933 44.9305 21.5733 44.8238 21.88C44.7305 22.1867 44.6838 22.4733 44.6838 22.74ZM20.6998 43.56C20.6998 44.3067 20.5532 44.9867 20.2598 45.6C19.9798 46.2 19.5932 46.72 19.0998 47.16C18.6198 47.6 18.0465 47.94 17.3798 48.18C16.7265 48.42 16.0198 48.54 15.2598 48.54C14.7265 48.54 14.1932 48.4 13.6598 48.12C13.1265 47.8267 12.6132 47.3667 12.1198 46.74L13.5998 43.84C13.6932 44.0133 13.8332 44.1933 14.0198 44.38C14.2065 44.5533 14.4132 44.7067 14.6398 44.84C14.8798 44.9733 15.1132 45.0867 15.3398 45.18C15.5798 45.26 15.7932 45.3 15.9798 45.3C16.1398 45.3 16.3065 45.2733 16.4798 45.22C16.6532 45.1667 16.8132 45.0867 16.9598 44.98C17.1065 44.8733 17.2198 44.7533 17.2998 44.62C17.3932 44.4733 17.4398 44.3067 17.4398 44.12C17.4398 43.8 17.3332 43.5067 17.1198 43.24C16.9198 42.96 16.6665 42.7 16.3598 42.46C16.0532 42.2067 15.7198 41.9533 15.3598 41.7C14.9998 41.4467 14.6665 41.18 14.3598 40.9C14.0665 40.62 13.8132 40.3067 13.5998 39.96C13.3865 39.6133 13.2798 39.2267 13.2798 38.8C13.2798 38.1067 13.4865 37.46 13.8998 36.86C14.3132 36.26 14.8265 35.7467 15.4398 35.32C16.0665 34.88 16.7465 34.5333 17.4798 34.28C18.2132 34.0267 18.9065 33.9 19.5598 33.9C19.9198 33.9 20.2598 33.9467 20.5798 34.04C20.8998 34.12 21.1732 34.26 21.3998 34.46C21.6398 34.6467 21.8265 34.8867 21.9598 35.18C22.1065 35.4733 22.1798 35.84 22.1798 36.28C22.1798 36.4667 22.1598 36.6533 22.1198 36.84C22.0932 37.0267 22.0665 37.2267 22.0398 37.44L19.1398 38.28C19.1665 38.1733 19.1865 38.0667 19.1998 37.96C19.2265 37.8533 19.2398 37.7467 19.2398 37.64C19.2398 37.24 19.1665 36.9533 19.0198 36.78C18.8865 36.5933 18.7065 36.5 18.4798 36.5C18.3732 36.5 18.2398 36.54 18.0798 36.62C17.9332 36.7 17.7798 36.8067 17.6198 36.94C17.4732 37.06 17.3465 37.2067 17.2398 37.38C17.1332 37.5533 17.0798 37.74 17.0798 37.94C17.0798 38.26 17.1665 38.5267 17.3398 38.74C17.5265 38.9533 17.7532 39.1533 18.0198 39.34C18.2865 39.5267 18.5732 39.72 18.8798 39.92C19.1998 40.1067 19.4932 40.3533 19.7598 40.66C20.0265 40.9667 20.2465 41.3533 20.4198 41.82C20.6065 42.2733 20.6998 42.8533 20.6998 43.56ZM32.6336 37.68C32.6336 38.7733 32.5136 39.8067 32.2736 40.78C32.0469 41.74 31.7403 42.6267 31.3536 43.44C30.9669 44.24 30.5136 44.96 29.9936 45.6C29.4869 46.2267 28.9536 46.7667 28.3936 47.22C27.8336 47.66 27.2669 48 26.6936 48.24C26.1203 48.4667 25.5736 48.58 25.0536 48.58C24.6136 48.58 24.2136 48.5 23.8536 48.34C23.4936 48.1667 23.1803 47.92 22.9136 47.6C22.6469 47.2667 22.4336 46.8467 22.2736 46.34C22.1269 45.82 22.0536 45.2 22.0536 44.48C22.0536 43.7333 22.1469 42.9467 22.3336 42.12C22.5203 41.2933 22.7736 40.4733 23.0936 39.66C23.4136 38.8467 23.8069 38.0733 24.2736 37.34C24.7403 36.6067 25.2536 35.96 25.8136 35.4C26.3736 34.8267 26.9736 34.3733 27.6136 34.04C28.2536 33.7067 28.9203 33.54 29.6136 33.54C30.2136 33.54 30.7069 33.6667 31.0936 33.92C31.4936 34.16 31.8003 34.48 32.0136 34.88C32.2403 35.2667 32.4003 35.7067 32.4936 36.2C32.5869 36.6933 32.6336 37.1867 32.6336 37.68ZM25.0336 43.96C25.0336 44.1067 25.0603 44.26 25.1136 44.42C25.1669 44.58 25.2403 44.72 25.3336 44.84C25.4269 44.96 25.5403 45.0667 25.6736 45.16C25.8203 45.24 25.9736 45.28 26.1336 45.28C26.7336 45.28 27.2669 45.0733 27.7336 44.66C28.2003 44.2467 28.5869 43.74 28.8936 43.14C29.2003 42.54 29.4336 41.9 29.5936 41.22C29.7669 40.54 29.8536 39.92 29.8536 39.36C29.8536 39.2 29.8403 39.0267 29.8136 38.84C29.8003 38.6533 29.7603 38.48 29.6936 38.32C29.6403 38.16 29.5469 38.0267 29.4136 37.92C29.2936 37.8 29.1269 37.74 28.9136 37.74C28.4869 37.74 28.0936 37.8467 27.7336 38.06C27.3736 38.2733 27.0469 38.56 26.7536 38.92C26.4736 39.2667 26.2269 39.6667 26.0136 40.12C25.8003 40.56 25.6136 41.0133 25.4536 41.48C25.3069 41.9333 25.2003 42.38 25.1336 42.82C25.0669 43.26 25.0336 43.64 25.0336 43.96ZM37.8169 47.86C37.4035 47.86 36.9635 47.8733 36.4969 47.9C36.0435 47.9267 35.5835 47.9667 35.1169 48.02C34.6502 48.0733 34.1902 48.1467 33.7369 48.24C33.2969 48.32 32.8969 48.42 32.5369 48.54C32.6169 47.94 32.7102 47.2733 32.8169 46.54C32.9235 45.8067 33.0435 45.0467 33.1769 44.26C33.3235 43.4733 33.4635 42.68 33.5969 41.88C33.7435 41.08 33.8902 40.3133 34.0369 39.58C34.3702 37.8333 34.7235 36.0533 35.0969 34.24L38.5969 33.78C38.2369 35.3267 37.8902 36.8333 37.5569 38.3C37.4102 38.9267 37.2635 39.58 37.1169 40.26C36.9702 40.9267 36.8302 41.58 36.6969 42.22C36.5635 42.86 36.4435 43.48 36.3369 44.08C36.2302 44.68 36.1435 45.2133 36.0769 45.68C36.4102 45.6533 36.7635 45.64 37.1369 45.64C37.5235 45.6267 37.8635 45.62 38.1569 45.62C38.1702 45.8733 38.1902 46.1267 38.2169 46.38C38.2435 46.62 38.2702 46.84 38.2969 47.04C38.3369 47.24 38.3635 47.42 38.3769 47.58C38.4035 47.7267 38.4235 47.8267 38.4369 47.88C38.3302 47.88 38.2235 47.88 38.1169 47.88C38.0235 47.8667 37.9235 47.86 37.8169 47.86ZM49.512 38.28C49.512 38.9733 49.412 39.7133 49.212 40.5C49.012 41.2733 48.732 42.0467 48.372 42.82C48.012 43.58 47.5654 44.3133 47.032 45.02C46.512 45.7133 45.9187 46.3267 45.252 46.86C44.5854 47.38 43.852 47.8 43.052 48.12C42.2654 48.44 41.4254 48.6 40.532 48.6C40.3454 48.6 40.1587 48.5867 39.972 48.56C39.7854 48.5467 39.5987 48.5267 39.412 48.5C39.772 46.66 40.1254 44.8667 40.472 43.12C40.6054 42.3867 40.7454 41.6267 40.892 40.84C41.0387 40.04 41.1787 39.2533 41.312 38.48C41.4454 37.7067 41.572 36.9667 41.692 36.26C41.8254 35.5533 41.932 34.9133 42.012 34.34C42.5854 34.2333 43.1654 34.1333 43.752 34.04C44.3387 33.9467 44.9387 33.9 45.552 33.9C46.272 33.9 46.8787 34.0133 47.372 34.24C47.8787 34.4667 48.2854 34.78 48.592 35.18C48.912 35.58 49.1454 36.0467 49.292 36.58C49.4387 37.1133 49.512 37.68 49.512 38.28ZM44.792 36.72C44.6454 37.5067 44.492 38.26 44.332 38.98C44.172 39.7 44.012 40.4267 43.852 41.16C43.692 41.8933 43.532 42.66 43.372 43.46C43.212 44.26 43.0587 45.1333 42.912 46.08C43.232 45.8667 43.5387 45.58 43.832 45.22C44.1387 44.8467 44.4254 44.42 44.692 43.94C44.9587 43.46 45.1987 42.9533 45.412 42.42C45.6387 41.8867 45.832 41.3667 45.992 40.86C46.152 40.3533 46.272 39.88 46.352 39.44C46.4454 39 46.492 38.62 46.492 38.3C46.492 37.8067 46.352 37.42 46.072 37.14C45.8054 36.86 45.3787 36.72 44.792 36.72Z" fill="black"/>
</svg>
