<svg width="112" height="112" viewBox="0 0 112 112" fill="none" xmlns="http://www.w3.org/2000/svg">
<g filter="url(#filter0_d)">
<path d="M81 19L31 16L34.3493 66L79 65L81 19Z" fill="#242424" shape-rendering="crispEdges"/>
<path d="M81 19L31 16L34.3493 66L79 65L81 19Z" stroke="white" stroke-opacity="0.5" shape-rendering="crispEdges"/>
</g>
<g clip-path="url(#clip0)">
<path d="M67 34.1786C66.1819 34.5375 65.3101 34.7754 64.4012 34.8909C65.3363 34.3326 66.0499 33.4554 66.3854 32.398C65.5136 32.9177 64.5511 33.2849 63.5254 33.4898C62.6976 32.6084 61.5179 32.0625 60.2309 32.0625C57.7339 32.0625 55.7236 34.0893 55.7236 36.5739C55.7236 36.9314 55.7539 37.2751 55.8281 37.6024C52.0785 37.4195 48.7606 35.6224 46.5317 32.8848C46.1426 33.5599 45.9144 34.3326 45.9144 35.1645C45.9144 36.7265 46.7188 38.1111 47.9177 38.9127C47.1931 38.899 46.4822 38.6886 45.88 38.3573C45.88 38.371 45.88 38.3889 45.88 38.4067C45.88 40.5985 47.4434 42.419 49.4935 42.8384C49.1264 42.9388 48.7262 42.9869 48.311 42.9869C48.0222 42.9869 47.7307 42.9704 47.4571 42.9099C48.0415 44.696 49.6998 46.0091 51.6715 46.0518C50.137 47.2521 48.1886 47.9754 46.0794 47.9754C45.7095 47.9754 45.3547 47.9589 45 47.9135C46.9979 49.2019 49.3656 49.9375 51.919 49.9375C60.2185 49.9375 64.756 43.0625 64.756 37.1033C64.756 36.9039 64.7491 36.7114 64.7395 36.5203C65.6346 35.885 66.3867 35.0916 67 34.1786Z" fill="white"/>
</g>
<defs>
<filter id="filter0_d" x="0.463379" y="0.466797" width="111.058" height="111.044" filterUnits="userSpaceOnUse" color-interpolation-filters="sRGB">
<feFlood flood-opacity="0" result="BackgroundImageFix"/>
<feColorMatrix in="SourceAlpha" type="matrix" values="0 0 0 0 0 0 0 0 0 0 0 0 0 0 0 0 0 0 127 0" result="hardAlpha"/>
<feOffset dy="15"/>
<feGaussianBlur stdDeviation="15"/>
<feComposite in2="hardAlpha" operator="out"/>
<feColorMatrix type="matrix" values="0 0 0 0 0 0 0 0 0 0 0 0 0 0 0 0 0 0 0.25 0"/>
<feBlend mode="normal" in2="BackgroundImageFix" result="effect1_dropShadow"/>
<feBlend mode="normal" in="SourceGraphic" in2="effect1_dropShadow" result="shape"/>
</filter>
<clipPath id="clip0">
<rect width="22" height="22" fill="white" transform="translate(45 30)"/>
</clipPath>
</defs>
</svg>
